<svg width="50mm" height="267.266" viewBox="12 25 25 30.714" xml:space="preserve" xmlns="http://www.w3.org/2000/svg"><path style="fill:#f56416;stroke-width:2.559;paint-order:stroke markers fill" d="M30.274 25.867c.145-.043.296-.058.446-.075.167-.015.333-.05.502-.05.092.004.18.03.266.058q.064.02.125.046c.156.064.246-.156.09-.22a2 2 0 0 0-.144-.052 1.2 1.2 0 0 0-.339-.069c-.177.001-.352.033-.528.051-.165.019-.33.036-.49.084-.161.049-.091.277.07.228m-6.299-.371c.172.055.351.08.53.09.191-.005.091.004.299-.031.166-.029.125-.264-.041-.235-.167.031-.085.022-.245.028a1.8 1.8 0 0 1-.47-.079c-.16-.052-.234.175-.073.227m-.983 4.81a2 2 0 0 0-.1-.182c-.087-.144-.291-.021-.204.124q.05.078.088.16c.071.153.287.051.216-.101m-.081.193c.062.042.134.064.204.088.16.052.234-.175.073-.227-.05-.016-.101-.03-.145-.059-.14-.093-.272.105-.132.199m-.177-.962c.079.016.159.018.239.021.169.005.175-.234.006-.238a1 1 0 0 1-.198-.016c-.165-.033-.212.2-.047.233m2.964-.771c-.201.077-.35.23-.486.392a.12.12 0 0 0 .183.152c.104-.127.217-.248.371-.316.161-.048.093-.277-.068-.228m.955 6.737c.046.103.101.203.152.304.069.149-.008.119.251-.005a.7.7 0 0 0-.187-.24c-.105-.07-.219-.128-.327-.193-.145-.086-.267.119-.122.205l.295.17a.43.43 0 0 1 .13.169c.265-.092.254-.03.173-.212-.049-.099-.103-.195-.148-.296-.07-.153-.287-.055-.217.099m.04 1.241a3 3 0 0 1-.146-.423 2 2 0 0 1-.03-1.007c.034-.165-.2-.213-.233-.048a2.3 2.3 0 0 0 .033 1.121c.045.156.092.314.161.462.074.151.288.047.214-.104m-.907-1.145c.088.088.157.191.224.295q.085.137.142.287.035.107.068.216.036.123.098.235l.084.16c.08.149.29.036.21-.113l-.084-.159q-.05-.093-.08-.194l-.072-.228a2 2 0 0 0-.164-.332 2 2 0 0 0-.252-.331c-.116-.122-.289.041-.173.164m-.254-.252a11 11 0 0 0-.03.533 2 2 0 0 0 .017.36q.015.104.036.206a1 1 0 0 0 .045.185l.056.17q.033.098.061.198.031.14.074.276c.049.161.277.092.228-.07a3 3 0 0 1-.071-.268 4 4 0 0 0-.064-.21l-.056-.169a1 1 0 0 1-.038-.158q-.02-.097-.034-.195a2 2 0 0 1-.015-.319 10 10 0 0 1 .029-.522c.013-.168-.225-.186-.237-.018m.261.796c-.018-.2.002-.399.035-.597.022-.13.057-.258.092-.385.045-.162-.185-.226-.23-.063-.037.136-.074.272-.098.411a2.6 2.6 0 0 0-.037.652c.013.168.25.15.238-.018m-.363-.847q-.122.056-.236.129c-.113.075-.075.036-.046.245a.3.3 0 0 1 .128.099c.04.049.079.1.104.158.018.047.022.098.029.148q.015.123.05.241c.048.162.277.094.229-.068a1 1 0 0 1-.042-.204c-.01-.072-.018-.145-.046-.212a1 1 0 0 0-.145-.223.5.5 0 0 0-.175-.139c.009.205-.045.214.044.155a2 2 0 0 1 .21-.114c.152-.072.05-.288-.102-.215m-.378.54.017.217.005.099c.013.102.013.09.243.011.019-.006.002-.04.003-.06.006-.149 0-.051.012-.22.024-.165.006-.086.051-.239.045-.162-.184-.227-.23-.064-.052.189-.032.094-.059.286-.009.134-.009.11-.013.229 0 .012-.012.033 0 .036.076.016.155.01.233.012.005 0-.011-.017-.002-.014l-.004-.09-.017-.223c-.015-.168-.252-.147-.237.021zm-.147.307c.071.1.11.215.14.332.042.163.273.103.231-.06a1.2 1.2 0 0 0-.18-.415c-.101-.135-.292.008-.191.143m-.739.42q.081.084.141.185.043.066.072.138c.01.024.011.049.015.075q.007.068.022.134c.039.164.271.109.232-.055a1 1 0 0 1-.018-.112c-.006-.046-.012-.092-.031-.135a1 1 0 0 0-.09-.171 1.3 1.3 0 0 0-.171-.224c-.117-.121-.289.045-.171.166m-.452-.623q.105.18.207.363.066.12.144.234.046.062.095.123.041.044.086.083l.039.035.008.008c.127-.035.257-.062.382-.103.007-.002.08-.243.085-.259a2.6 2.6 0 0 1 .21-.572q.07-.132.156-.255c.188-.28-.208-.545-.396-.265-.067.1-.133.201-.188.308a3 3 0 0 0-.24.649q-.024.085-.053.169l-.017.046c.125-.021.248-.052.372-.079l-.001-.001-.035-.032-.05-.046c-.025-.027-.043-.061-.068-.089-.044-.061-.08-.127-.117-.192q-.103-.183-.208-.365c-.168-.292-.581-.054-.413.238m-3.079-.973c-.109.04-.225.058-.338.08-.122.025-.241.063-.36.099-.037.011-.073.024-.112.027-.008.002-.052-.001-.017.001.004 0-.016-.005-.012-.004l.012.002.018.012c-.265-.208-.559.167-.294.375l.036.025a.48.48 0 0 0 .306.062q.104-.012.203-.045c.104-.032.207-.065.314-.087.147-.03.296-.054.436-.111.308-.135.117-.571-.192-.436m1.719.691a1 1 0 0 0-.251.339c-.151.301.274.515.425.214a1 1 0 0 1 .094-.159c.279-.19.01-.583-.268-.394m6.412-1.919c-.09-.045-.042-.024-.146-.061-.32-.106-.47.346-.15.452.033.009.019.004.043.013.285.179.538-.225.253-.404m-.848 1.169a.6.6 0 0 1 .153-.267c.108-.095.239-.158.371-.211.111-.042.226-.072.345-.076.018.002.036.002.048.015.312.126.491-.315.179-.442a.6.6 0 0 0-.252-.049 1.6 1.6 0 0 0-.498.11c-.2.082-.394.181-.549.336a1.1 1.1 0 0 0-.25.436c-.105.32.348.469.453.149m-.774.254a.7.7 0 0 1 .319.045l.07.023c.32.106.47-.346.15-.452l-.077-.025a1.2 1.2 0 0 0-.522-.062c-.334.043-.273.516.061.473m-.39.442c.06-.148.152-.273.259-.39a.9.9 0 0 1 .312-.192c.311-.128.13-.569-.182-.44-.18.076-.348.169-.484.314a1.8 1.8 0 0 0-.345.527c-.128.311.313.493.44.181m-1.121.006a.8.8 0 0 1 .342.045q.084.044.167.09c.296.161.524-.257.228-.418-.073-.04-.145-.082-.221-.115a1.2 1.2 0 0 0-.516-.078c-.337 0-.337.476 0 .476m-.906.522a7 7 0 0 1 .548-.294c-.027.007.284-.123.229-.066.326.086.447-.375.121-.461-.041-.008-.082-.02-.124-.023-.152-.009-.294.063-.43.12q-.29.139-.567.303c-.298.158-.074.579.224.42m-.857.076c.147-.043.299-.078.452-.056.09.026.047.01.13.049.31.132.496-.307.186-.439-.174-.07-.085-.042-.267-.085-.048-.004-.095-.011-.144-.012-.171-.003-.341.044-.505.089-.32.105-.172.558.148.453m-.434.295c.111-.106.249-.177.385-.245.3-.152.085-.577-.216-.425-.189.097-.379.2-.527.355-.222.253.136.568.358.314m-.342.36c.208-.11.396-.256.591-.387.17-.109.085-.056.255-.158.289-.173.045-.582-.245-.409-.187.112-.095.055-.277.172-.169.114-.333.234-.505.341-.312.128-.131.569.18.441m-.65-1.023c.103.067.149.174.187.286.03.101.047.204.064.308.055.332.525.255.47-.078-.022-.132-.044-.265-.086-.393-.087-.228-.174-.389-.381-.526-.285-.179-.538.225-.253.403m-1.059-.471a2 2 0 0 0-.12.149c-.202.27.18.555.381.286q.045-.061.096-.119c.223-.252-.134-.568-.357-.315m.176-.084c-.038.127-.069.255-.105.382l-.017.057c-.096.323.361.458.457.135l.018-.063c.036-.126.067-.253.104-.379.094-.323-.363-.457-.457-.133m-.007-.217c.002.119.025.235.042.353q.017.138.045.275.01.041.011.082 0 .153.127.247c.027.02.061.026.091.039.127.019.06.015.203.005.334-.042.275-.515-.06-.473-.014.009-.015.004-.005.013a.23.23 0 0 1 .119.179c.002.012-.003-.051-.001-.035a1 1 0 0 0-.021-.155c-.018-.081-.028-.163-.04-.245-.014-.098-.034-.196-.037-.296-.008-.337-.484-.326-.476.011m-.7-.065c-.033.097-.093.18-.149.264l-.032.048c-.19.279.205.546.394.268l.035-.052c.081-.122.163-.245.207-.387.1-.322-.355-.463-.455-.141m.205-.675q.077.184.158.364c.137.308.572.115.436-.193q-.082-.181-.158-.365c-.137-.308-.572-.115-.435.193m.133.248.118.108c.248.228.571-.122.323-.35l-.122-.112c-.25-.225-.569.129-.319.354m3.262-1.26c0 .156.036.308.081.456a1.5 1.5 0 0 0 .256.497q.039.053.079.104l.023.032c.399.543 1.167-.021.768-.564l-.035-.047q-.036-.046-.071-.094l-.053-.076a.5.5 0 0 1-.056-.13.7.7 0 0 1-.039-.178c0-.674-.952-.674-.952 0m.606 2.008q.09-.168.188-.331.11-.185.186-.386.04-.128.077-.256l.048-.192c.021-.086.024-.175.025-.263q0-.118-.003-.237l-.002-.127c.006-.172-.476-.523-.292-.446-.325-.158-.28.073-.662.623-.022.031.038.066.057.099.104.142.254.229.41.304q.196.095.407.147c.128.029.258.034.388.037h.28q.144.002.287-.012a6 6 0 0 0 .251-.03 3 3 0 0 1 .19-.02q.119-.009.237-.02a3 3 0 0 0 .243-.028 3.4 3.4 0 0 0 .464-.118c.055-.017.106-.045.158-.067.014-.006.03-.012.006-.003-.073.028-.148.014-.223.001a.33.33 0 0 1-.181-.127c-.013-.01-.031-.09-.023-.029q.014.112.035.223l.003.022-.002-.012q-.003-.026-.002-.05a.46.46 0 0 1 .111-.262c.046-.04-.083.041-.085.043a2 2 0 0 1-.192.104l-.29.114q-.18.075-.363.145-.211.088-.425.171a4 4 0 0 1-.422.129q-.212.05-.427.095a3 3 0 0 0-.422.11q-.094.033-.186.071c-.008.003-.031.012-.023.01l.063-.021c.667.353.542.079.555.618 0 .003.004-.005.006-.008a1 1 0 0 1 .065-.105c.07-.087.158-.157.248-.221a.7.7 0 0 1 .239-.104c.113-.026.23-.026.346-.029q.145 0 .289-.021c.667-.095.532-1.038-.135-.943-.058.01-.118.01-.177.012a2.4 2.4 0 0 0-.585.065c-.193.056-.381.13-.543.252-.175.13-.341.272-.469.45-.102.152-.324.476-.182.656.132.167.372.204.558.306a3 3 0 0 0 .226-.081q.16-.053.326-.084.233-.048.463-.103a5 5 0 0 0 .529-.163 18 18 0 0 0 .43-.173q.186-.072.371-.149c.11-.045.222-.086.333-.132q.143-.066.277-.149c.086-.051.176-.098.251-.166.024-.025.052-.048.073-.077a.6.6 0 0 0 .107-.477q-.017-.09-.029-.181a.9.9 0 0 0-.094-.325.68.68 0 0 0-.358-.31c-.137-.029-.23-.042-.361.001a1 1 0 0 0-.096.038l-.085.038a1 1 0 0 1-.122.036 3 3 0 0 1-.189.042c-.056.01-.114.013-.171.018l-.236.02a4 4 0 0 0-.242.027q-.104.015-.207.025-.097.01-.194.007h-.26c-.064-.001-.128-.002-.191-.012-.075-.013-.142-.051-.212-.08-.057-.026-.103-.067-.034.015.01.02.047.044.032.062-.59.721-.33.732-.647.605l.036.017c.217.097-.277-.619-.261-.406l.002.137q.003.1.003.2c0 .007-.005.084.003.048q-.02.076-.037.152l-.059.202c-.025.078-.07.148-.108.22q-.104.172-.198.349c-.333.585.495 1.056.828.471m-.285.312a3 3 0 0 0 .426-.351 1.7 1.7 0 0 0 .293-.391q.067-.133.108-.276.03-.09.051-.181a2 2 0 0 0 .039-.28c.034-.673-.918-.721-.951-.048.005-.019-.01.082-.011.09l-.004.025c-.009.042-.024.083-.036.125a1 1 0 0 1-.039.105c-.029.063-.079.112-.126.163a2 2 0 0 1-.288.235c-.555.381-.016 1.167.539.785m-1.995.151c.081.01.161.028.241.044.176.039.355.051.535.052.674-.001.672-.954-.001-.953a1.5 1.5 0 0 1-.35-.035c-.153-.03-.306-.065-.463-.061-.673.027-.634.979.039.952m-1.792-1.213c-.09.082-.217.194-.234.32-.014.101.003.204.005.306.067.086.118.189.202.257.13.105.322.091.471.052l.034-.01c.035-.011-.04.016-.074.017a.5.5 0 0 1-.213-.027l-.004-.002c.13.045.227.057.362.029.277-.056.323-.215.409-.478.008-.025-.01-.124-.016-.162l-.032-.195-.002-.042c-.004-.378-.171-.101-.951-.068-.002 0-.005.069-.006.074a.8.8 0 0 0 .08.356q.059.132.131.257c.061.107.143.199.231.283.088.082.195.136.305.182.067.028.132.061.198.09.083.036.17.061.257.086l.148.047a5 5 0 0 0 .394.138c.068.02.138.027.207.037q.084.008.167.018c.118.014.236.006.353-.011q.143-.027.283-.064.155-.04.307-.09.174-.057.34-.13.141-.064.287-.12.154-.057.301-.13c.075-.035.143-.082.209-.132.511-.439-.11-1.161-.621-.722.09-.065.007-.004-.017.004a2 2 0 0 1-.225.096 7 7 0 0 0-.307.129 3 3 0 0 1-.262.1 4 4 0 0 1-.44.119.4.4 0 0 1-.094.006l-.154-.016c-.028-.004-.055-.005-.083-.012-.051-.013-.1-.034-.15-.05l-.195-.073-.19-.06q-.065-.017-.128-.039c-.075-.033-.148-.071-.224-.101-.02-.008-.039-.021-.017.001a.2.2 0 0 1-.054-.058 2 2 0 0 1-.081-.157c-.029-.067.005.042-.005.062-.052.245-.925.281-.947-.06v.029q0 .09.014.177l.032.198c.009.046-.004-.016.003-.034.157-.368.072-.27.356-.418.002-.001-.012.004-.009.002a.6.6 0 0 1 .214.03.6.6 0 0 0-.377-.024.3.3 0 0 1 .13 0c.24.07.182.081.355.313-.001.094.011.189-.003.282-.006.04-.035.074-.056.109-.016.025-.07.07-.007.013l.028-.025c.501-.45-.137-1.159-.637-.708m-.627 8.855c.216-.047.405-.169.59-.283.169-.102.32-.229.47-.355.129-.108-.024-.291-.153-.182a3.5 3.5 0 0 1-.442.334c-.159.098-.319.205-.502.251-.166.026-.129.262.037.235m-.175-.94c-.053.137-.14.258-.221.379-.094.14.104.273.198.133s.194-.282.251-.442c.05-.161-.179-.231-.228-.07m-.268-.348a1.5 1.5 0 0 0-.273.393q-.03.072-.055.145l-.035.162c-.034.165.199.213.233.048l.025-.127c.066-.181.146-.325.282-.463.112-.125-.065-.285-.178-.159m-1.434-1.186c.098-.101.214-.182.328-.262.215-.14.43-.283.616-.462q.084-.084.165-.169l.179-.226c.105-.132-.083-.28-.187-.148l-.163.208c-.051.052-.1.107-.152.157a4 4 0 0 1-.594.445 2.3 2.3 0 0 0-.373.302c-.11.128.071.283.181.155m.105.281a7 7 0 0 0 .849-.546c.136-.099-.004-.292-.14-.193a7 7 0 0 1-.821.529c-.148.08-.035.29.113.21m3.997 3.741c.127-.066.262-.111.397-.157.16-.055.082-.28-.077-.225-.148.05-.296.101-.435.174-.148.081-.033.29.115.209m-.127.497c.123-.091.268-.14.414-.179.119-.028.24-.038.361-.05.168-.017.143-.255-.025-.237-.133.014-.268.026-.399.058a1.5 1.5 0 0 0-.494.217c-.135.1.006.292.142.191m-1.624 7.292c.043.516-.035 1.028-.113 1.536l-.088.492c-.03.166.205.208.235.042l.089-.498c.08-.526.16-1.056.115-1.589-.012-.168-.25-.151-.238.017m1.152 2.487c.007.158 0 .316-.007.474-.008.168.23.179.238.011.007-.163.014-.326.007-.49-.003-.168-.241-.164-.238.005m.28-2.432a17 17 0 0 1-.033 1.079l-.02.303c-.011.168.227.184.238.016l.02-.305q.034-.545.034-1.089c.003-.169-.235-.172-.238-.004m-.103-2.359c.039.242.079.484.087.73q.002.131 0 .262l-.012.281c-.007.169.231.179.238.01l.012-.292q.002-.138-.001-.276a6 6 0 0 0-.089-.749c-.024-.167-.26-.133-.236.034m-.569-1.636c.151.112.261.266.364.421.102.183.188.375.249.576q.036.127.065.255c.042.163.273.104.231-.06-.024-.092-.044-.185-.072-.276a3 3 0 0 0-.275-.627c-.121-.181-.251-.359-.429-.487-.14-.094-.273.103-.133.198m.078-1.163c.11.219.23.432.315.662.034.091.061.185.091.278.053.16.279.085.226-.075-.033-.098-.062-.198-.098-.295-.085-.23-.204-.444-.315-.662-.065-.155-.285-.064-.22.092m5.222.242c.249-.174.514-.317.79-.442.302-.113.15-.062.455-.155.161-.049.092-.277-.07-.228-.324.099-.163.044-.484.165a5 5 0 0 0-.811.453c-.145.085-.025.291.12.206m-.207.827c.22-.201.464-.374.706-.546.138-.098-.001-.292-.138-.194a8 8 0 0 0-.73.566c-.123.115.039.289.162.175m-.087 1.257c.144-.285.34-.534.549-.772.111-.127-.068-.284-.179-.157-.22.25-.425.512-.577.81-.084.146.123.265.207.119m.002 1.432c-.018-.16.003-.319.028-.476a2.4 2.4 0 0 1 .314-.841c.1-.164.235-.299.367-.436.117-.121-.055-.287-.172-.165-.145.151-.292.301-.401.482q-.048.08-.092.16a2.7 2.7 0 0 0-.251.763c-.027.178-.05.357-.029.537.017.168.254.143.237-.024m-.107 1.683q0-.21.008-.421c.007-.201.031-.402.046-.603.008-.211.037-.417.121-.611.053-.113.145-.193.234-.277.122-.116-.042-.289-.164-.172-.112.107-.224.212-.289.356a1.9 1.9 0 0 0-.139.686c-.016.204-.04.408-.047.613a10 10 0 0 0-.008.43.12.12 0 0 0 .238 0m-.093 1.419a7 7 0 0 1 .022-.379q.02-.244.034-.488c.006-.152.008-.304.015-.455a.7.7 0 0 1 .052-.259c.102-.177.262-.311.418-.439.13-.107-.021-.291-.151-.184-.185.152-.374.314-.487.53a.9.9 0 0 0-.071.341l-.015.454a16 16 0 0 1-.033.481 7 7 0 0 0-.022.385c-.009.168.23.18.238.012m.079 1.182c-.012-.189-.014-.378-.017-.567-.003-.231-.006-.461.01-.691.015-.214.062-.421.127-.625.068-.21.183-.399.297-.586.088-.144-.115-.268-.203-.125-.125.204-.248.41-.321.639a3 3 0 0 0-.137.68 9 9 0 0 0-.01.71q.001.291.017.581c.012.168.25.151.238-.017m4.669.062c-.04.164-.102.321-.16.479s.165.241.223.083c.064-.17.129-.341.171-.518.031-.166-.203-.21-.234-.044m-.138-.643c-.093.298-.219.585-.338.874-.064.156.156.246.22.09.123-.298.253-.595.348-.903.043-.163-.187-.224-.23-.061m-.149-1.405c-.124.274-.226.557-.326.84-.131.421-.071.206-.179.647-.04.164.191.22.231.057.104-.425.046-.217.172-.625.097-.275.196-.55.317-.817.072-.152-.143-.255-.215-.102m-.158-.893c-.07.215-.192.407-.308.598-.087.144.116.268.204.124.129-.213.264-.428.336-.668.038-.164-.194-.218-.232-.054m.045-.93c-.104.181-.229.349-.35.519-.098.137.097.275.194.138.128-.179.26-.356.368-.548.077-.15-.135-.259-.212-.109m.115-1.223a6 6 0 0 0-.5.79c-.08.149.13.261.21.113a6 6 0 0 1 .489-.772c.092-.141-.107-.271-.2-.13m.092-1.145a2.8 2.8 0 0 0-.512.478c-.186.254-.095.118-.268.41-.086.145.119.266.205.121.157-.266.075-.142.242-.373.141-.161.289-.317.467-.438.139-.095.005-.292-.134-.197m-.185-.815c-.092.218-.288.376-.449.542l-.18.189-.168.191c-.111.127.068.284.179.157l.161-.184.177-.185c.189-.194.412-.38.509-.642.049-.161-.18-.23-.228-.069m-.113-.812c-.062.245-.252.438-.42.615-.115.123.058.286.174.164.203-.217.425-.453.484-.755.017-.168-.22-.192-.237-.024m-.124-.653c-.044.131-.14.23-.23.33-.112.126.066.284.178.158.113-.129.23-.256.281-.424.046-.162-.183-.227-.229-.065m-.202-.671c-.032.243-.239.419-.405.579-.238.201-.116.103-.367.294-.134.102.01.292.144.19.265-.202.136-.098.389-.312.21-.204.447-.426.477-.735.011-.168-.227-.184-.238-.015m.096-.704c-.088.204-.269.341-.439.475a5.4 5.4 0 0 1-.799.49c-.149.079-.038.289.111.211.29-.153.576-.312.836-.514.207-.165.421-.338.519-.593.049-.161-.18-.23-.228-.069m.499-1.139c-.081.18-.225.323-.363.46-.255.239-.55.428-.845.612a3.6 3.6 0 0 1-.897.393c-.161.05-.091.277.07.228.333-.102.657-.231.953-.419.311-.193.621-.393.888-.645.164-.165.334-.338.421-.558.051-.161-.177-.232-.227-.071m-12.45 11.285c.06.075.133.129.21.184.138.096.275-.1.136-.196a.7.7 0 0 1-.172-.151c-.116-.123-.289.04-.174.163m.213-.873c.087.088.19.156.295.222.143.089.269-.113.126-.202a1.3 1.3 0 0 1-.25-.186c-.117-.121-.288.045-.171.166m.189-.625c.106.08.227.131.35.177.158.058.24-.165.082-.224a1.1 1.1 0 0 1-.294-.147c-.137-.098-.276.095-.139.194m-.07-.831c.13.131.287.223.452.3.153.07.252-.147.099-.217a1.3 1.3 0 0 1-.385-.254c-.121-.118-.287.053-.167.17m.001-.521c.213.117.443.191.68.242.165.034.214-.199.049-.233a2.2 2.2 0 0 1-.62-.221c-.15-.077-.259.135-.109.212m.118-.945c.1.171.233.323.398.435q.072.046.146.088c.21.095.104.054.319.125.16.052.234-.174.074-.226-.182-.059-.092-.025-.27-.103-.193-.114-.344-.233-.456-.432-.08-.148-.29-.035-.21.113m.029-.541c.161.208.381.347.607.474.231.108.113.06.355.145.159.055.238-.17.079-.225-.214-.074-.109-.031-.317-.128-.201-.112-.397-.233-.54-.418-.107-.13-.291.022-.184.152m-.059-.681c.165.15.332.297.511.43.155.117.332.181.515.241.16.052.234-.175.073-.227a1.4 1.4 0 0 1-.445-.205 7 7 0 0 1-.503-.424c-.13-.106-.281.078-.151.185m.046-.662c.057.211.21.373.392.488.05.031.103.056.155.084.222.086.111.049.333.113.162.046.228-.183.066-.229-.193-.055-.098-.023-.287-.095-.18-.094-.367-.207-.427-.415-.038-.164-.27-.111-.232.053m.003-.793c.102.156.205.317.339.448.042.041.089.076.133.115.145.117.314.175.489.228.162.048.23-.18.068-.229a1.1 1.1 0 0 1-.402-.18q-.056-.044-.11-.092c-.126-.122-.221-.274-.317-.42-.092-.141-.292-.011-.2.13m.082-1.204c.043.24.153.454.28.659.194.286.414.432.718.581.151.074.256-.14.104-.214-.25-.12-.462-.257-.619-.493a1.7 1.7 0 0 1-.248-.577c-.031-.166-.265-.122-.235.043m.165-.826c.02.246.145.459.28.659.092.129.208.235.325.34.125.113.285-.064.16-.177a2 2 0 0 1-.287-.296c-.112-.164-.221-.338-.24-.541-.011-.168-.249-.152-.238.016m-.17-.941c-.002.236.103.449.207.654.131.265.326.48.542.676.125.113.285-.064.16-.177a2.1 2.1 0 0 1-.49-.608c-.085-.167-.177-.341-.182-.533.009-.168-.229-.181-.238-.012m5.49-.991c.181.014.362-.02.54-.048.167-.026.13-.262-.037-.236-.161.025-.324.057-.487.045-.168-.011-.184.227-.016.238m-.806-.654c.202.035.405.064.61.063.076 0 .152-.006.229-.01l.254-.031c.167-.021.138-.257-.029-.237l-.236.029a3 3 0 0 1-.79-.051c-.167-.026-.204.209-.038.235m-.598-.789c.2.1.413.166.628.221.446.097.905.116 1.36.127l.301-.003c.169-.002.166-.24-.002-.238l-.294.003c-.437-.01-.877-.028-1.306-.119a3 3 0 0 1-.586-.206c-.152-.072-.254.144-.102.215m-.33-1.895c-.058.248-.212.462-.351.67-.144.212-.314.405-.482.598-.111.127.069.284.18.157.175-.201.351-.401.501-.622.157-.236.327-.48.388-.762.028-.166-.207-.206-.235-.04m.482-.857c.026.231.107.45.194.664.148.316.309.636.557.888.061.062.129.116.193.174l.218.16c.136.1.277-.093.141-.192l-.2-.146c-.057-.051-.118-.099-.172-.153-.231-.231-.377-.53-.516-.822a2.3 2.3 0 0 1-.178-.596c-.015-.168-.253-.146-.237.022m7.584-6.966c.204-.145.426-.256.655-.356.154-.068.058-.286-.096-.218a4 4 0 0 0-.692.377c-.14.094-.006.292.133.198m-.441-.111c.253-.213.438-.486.611-.764.089-.143-.113-.269-.202-.126-.159.256-.327.508-.56.705-.131.106.02.291.15.185m-4.344-5.973.06-.007c.168-.019.141-.256-.027-.237l-.051.006c-.168.012-.151.25.017.238m-.125-.336q.128-.017.255-.039c.166-.028.126-.263-.04-.235a5 5 0 0 1-.243.038c-.167.02-.139.257.028.237m-.176-.397c.107-.012.212-.034.318-.054.166-.031.122-.265-.044-.234-.098.019-.196.039-.295.051-.168.015-.146.253.021.237m-2.013.517c.094.017.189.016.284.014.169-.002.165-.241-.004-.238a1.2 1.2 0 0 1-.236-.01c-.166-.031-.21.203-.045.234m-.071-.64c.1.043.204.048.311.053.169.005.176-.233.007-.238a.6.6 0 0 1-.229-.036c-.156-.063-.245.158-.089.221m-.044-.547c.157.086.288.116.465.133.168.014.188-.223.02-.237a.9.9 0 0 1-.384-.111c-.152-.072-.254.144-.102.215m-.062-.614a.8.8 0 0 0 .463.199c.048.005.097.002.145.003.169.002.172-.236.003-.238-.169 0-.327-.024-.455-.144-.127-.111-.284.069-.156.18m.031-.721a.7.7 0 0 0 .355.315c.04.015.082.024.124.036l.137.01c.168.009.181-.229.013-.238l-.088-.002c-.151-.037-.255-.096-.332-.236-.082-.148-.29-.032-.208.115zm3.967-.668a6 6 0 0 1-.388.167c-.157.062-.068.284.088.221a6 6 0 0 0 .394-.17c.155-.067.06-.286-.094-.219m.297 2.173c-.099.083-.215.138-.33.195-.15.076-.043.289.108.213.129-.065.259-.128.37-.221.132-.105-.016-.291-.148-.187m.132-.573a7 7 0 0 1-.503.224c-.156.063-.067.284.09.221a7 7 0 0 0 .517-.23c.152-.073.049-.288-.103-.215m.149-.773c-.176.14-.37.253-.568.358-.149.08-.036.29.112.21.21-.112.416-.232.602-.38.133-.104-.014-.292-.146-.188m-.26-.508c-.121.217-.326.365-.529.5l-.153.086c-.147.083-.03.29.117.208l.169-.096c.237-.161.473-.337.61-.595.072-.152-.143-.255-.215-.103m5.071 4.246c.011.243.059.481.121.716q.136.478.358.921c.129.208.061.11.204.296.103.133.292-.013.188-.146-.125-.16-.065-.074-.179-.257a5 5 0 0 1-.34-.874 3.2 3.2 0 0 1-.114-.669c-.01-.168-.248-.154-.238.014m-.222-1.774c.101.247.215.488.306.739.12.34.182.695.23 1.051.023.167.259.135.236-.032a5.5 5.5 0 0 0-.242-1.101c-.089-.245-.196-.482-.3-.721-.044-.163-.274-.1-.23.063m.007-.806c.143.114.263.254.379.394.081.095.148.199.212.305.087.144.291.021.204-.123a3 3 0 0 0-.232-.334 3 3 0 0 0-.417-.43c-.133-.103-.279.086-.146.189m-.907-1.254c.176.092.358.172.528.276a2.1 2.1 0 0 1 .436.392c.11.128.29-.028.18-.156a2.5 2.5 0 0 0-.492-.44c-.172-.104-.353-.187-.532-.279-.146-.085-.265.121-.12.206m-2.986-.162c.178-.082.376-.102.569-.123a14 14 0 0 1 1.076-.025l.168.017c.168.017.191-.22.024-.237l-.188-.018a14 14 0 0 0-1.106.027c-.223.025-.452.05-.656.15-.148.08-.035.29.113.21m.595.415c.137-.054.283-.075.43-.089.168-.017.144-.254-.024-.237a2 2 0 0 0-.5.107c-.155.067-.06.286.094.219m-.316.529a1.8 1.8 0 0 1 .46-.128c.165-.031.121-.265-.045-.234-.181.035-.365.07-.532.154-.147.082-.031.29.116.208m-.363.566c.142-.115.311-.183.483-.24.14-.044.286-.063.432-.076.168-.015.146-.253-.022-.237a2.3 2.3 0 0 0-.487.088c-.196.066-.39.145-.553.277-.133.103.013.291.146.188m3.027 9.18c.137.045.28.067.422.084.156.019.313 0 .469-.018a1.8 1.8 0 0 0 .463-.094c.192-.079.335-.226.478-.371.118-.12-.052-.287-.17-.167-.117.12-.234.245-.39.314-.131.05-.268.068-.407.081-.138.015-.276.034-.414.018a2 2 0 0 1-.382-.075c-.161-.049-.23.18-.069.228m2.805-2.754c.03.183.066.366.076.552q.004.116.004.232l-.027.281c-.016.168.221.19.237.022l.029-.309c-.002-.084-.001-.167-.005-.251-.011-.193-.048-.384-.079-.575-.033-.165-.267-.119-.234.046m-.443-.596c-.016.154-.03.307-.076.456-.02.065-.046.127-.069.191-.056.159.168.239.225.08.025-.071.054-.142.075-.214.046-.154.064-.311.079-.47.03-.166-.205-.208-.235-.042m-.612-.419c-.015.225-.09.436-.167.646-.058.158.166.24.224.082.082-.225.161-.453.179-.694.024-.167-.212-.201-.236-.034m-.512-.285c.015.116-.004.227-.023.342-.027.166.209.204.235.037.02-.133.042-.263.025-.398-.014-.168-.251-.149-.238.019m-.33-.759c.011.273-.122.516-.237.755-.073.152.142.255.215.103.131-.273.274-.551.26-.863-.003-.168-.241-.164-.238.004m-.372-.697c0 .227-.097.424-.202.619-.08.149.131.261.21.112.128-.241.224-.442.23-.719.008-.168-.23-.18-.238-.012m-.226-.658c-.003.18-.086.345-.16.505-.071.153.146.253.216.1.087-.19.18-.386.182-.6.004-.169-.235-.173-.238-.005m-.45-.583c.01.19-.076.363-.151.531-.068.154.15.251.218.096.09-.205.187-.416.171-.646-.013-.168-.251-.149-.238.019m-.573-.623c.006.166-.031.323-.078.48-.047.162.182.228.229.066.05-.178.094-.355.087-.542.003-.169-.236-.173-.238-.004m-.988-.882c.056.102.1.221.089.34-.003.037-.014.073-.021.11l-.046.139c-.052.16.175.234.227.074l.055-.174c.008-.053.02-.106.024-.16a.84.84 0 0 0-.132-.465c-.096-.138-.292-.002-.195.136m-1.507 1.907c.022-.173.057-.343.095-.513a1.8 1.8 0 0 1 .202-.534 2.4 2.4 0 0 1 .417-.513c.111-.104.243-.177.375-.251.147-.082.031-.29-.116-.208a2 2 0 0 0-.423.286 2.6 2.6 0 0 0-.46.568 2 2 0 0 0-.229.601c-.04.18-.078.361-.1.544-.015.168.222.19.237.021M28.303 31a1.9 1.9 0 0 1-.27.582 3 3 0 0 1-.601.673l-.102.083c-.13.107.021.291.151.185l.107-.088a3.3 3.3 0 0 0 .646-.725c.129-.204.245-.414.299-.65.042-.163-.189-.223-.231-.06m-.801.191c.002.193-.061.371-.137.545a3 3 0 0 1-.368.576c-.102.134.087.279.189.145.15-.197.294-.4.398-.626.088-.206.161-.418.156-.645-.004-.169-.242-.163-.238.005m-.486.19a2.4 2.4 0 0 1-.193.575c-.098.183-.227.347-.351.512-.101.135.089.278.19.144.134-.178.272-.355.376-.553.093-.195.165-.395.206-.607.05-.161-.178-.231-.228-.07m-.495.19c-.02.167-.101.315-.185.458-.104.152-.048.077-.17.224-.108.13.076.282.183.152.14-.169.076-.083.193-.256.1-.172.193-.351.215-.552.018-.167-.219-.193-.237-.025m-.533.182c-.007.18-.134.301-.258.415-.123.115.039.289.162.174.179-.168.328-.337.334-.594-.003-.169-.241-.164-.238.005m-.337-.16q-.155.185-.345.334l-.081.057c-.138.096-.002.292.136.195l.092-.064q.213-.167.386-.376c.103-.133-.086-.279-.189-.145m-.873.417c.182-.048.326-.158.463-.282.125-.113-.035-.29-.16-.176-.112.102-.227.195-.378.232a.12.12 0 0 0 .075.226m-.576 2.315c-.146.079-.309.11-.472.132-.148.014-.295 0-.441-.014-.168-.015-.189.222-.021.237.165.015.33.03.496.012.19-.027.379-.065.549-.157.15-.078.039-.289-.11-.211m.119-.409-.369.086c-.164.038-.111.27.054.232l.366-.085c.165-.036.114-.269-.05-.233m.078-.62c-.131.097-.284.16-.433.221-.156.064-.066.285.09.22.174-.071.35-.146.5-.262.127-.11-.029-.29-.156-.18m.099-.692c-.168.158-.373.267-.579.367l-.139.058c-.155.065-.064.285.092.22l.151-.063c.23-.112.459-.236.645-.415.118-.12-.052-.287-.17-.167m-.265-.261a1.7 1.7 0 0 1-.558.206c-.119.02-.234.003-.35-.018-.166-.029-.207.206-.041.235.147.025.292.044.441.016.223-.048.442-.116.637-.239.142-.091.013-.292-.129-.2m-.772-4.123a3.3 3.3 0 0 1-.574.195c-.163.045-.1.274.063.23.212-.058.425-.118.623-.215.149-.079.038-.29-.111-.211m-.186-.502a3 3 0 0 1-.53.299c-.153.07-.055.287.099.217.207-.095.414-.2.594-.341.123-.115-.039-.289-.162-.175m-.114-.38a2.2 2.2 0 0 1-.59.28c-.161.05-.091.277.07.228a2.5 2.5 0 0 0 .649-.307c.142-.091.013-.292-.129-.2m-.054-.577c-.148.165-.346.263-.55.342l-.116.03c-.163.043-.102.273.061.23l.143-.039c.238-.095.469-.212.641-.407.111-.127-.069-.283-.18-.156m.042-.483c-.14.126-.298.226-.466.31a1.8 1.8 0 0 1-.679.185c-.053.002-.107-.003-.16-.005-.169-.004-.174.234-.005.238.064.001.128.007.191.004.266-.013.521-.1.761-.21.186-.094.361-.204.516-.344.126-.111-.031-.29-.158-.179m-1.117 8.216c.09-.011.17-.051.25-.089.152-.073.05-.288-.102-.215-.054.026-.108.056-.168.067-.168.014-.148.252.02.237m-.156-.436c.086-.001.161-.035.239-.066.155-.066.062-.285-.093-.219-.051.023-.1.046-.157.048-.168.008-.157.246.011.238m-.344-.354c.142.019.27-.031.398-.086.155-.067.06-.286-.095-.219-.088.04-.174.08-.273.068-.167-.021-.196.216-.029.236m-.09-.673q.183.024.367.015c.168-.01.155-.248-.013-.238a2 2 0 0 1-.34-.015c-.168-.01-.183.228-.014.238m.034-.508c.117-.003.054.002.19-.017.167-.024.132-.26-.035-.236-.104.016-.054.012-.149.015-.169-.005-.175.234-.007.238m-.246-.481c.105.022.21.027.317.025.169-.005.161-.243-.007-.238a1 1 0 0 1-.277-.023c-.167-.023-.2.213-.033.236m-.009-.658c.105.046.216.05.329.048.168-.006.16-.244-.008-.238a.5.5 0 0 1-.228-.029c-.155-.066-.249.153-.094.219m-.164-.411c.087.017.17.001.256-.015.165-.034.117-.267-.048-.233a.4.4 0 0 1-.172.013c-.167-.026-.203.21-.036.236m-.152-.548c.086.032.175.033.266.035.169.002.171-.236.003-.238-.06 0-.12.001-.179-.017-.156-.064-.246.157-.09.221m-.187-.429c.169-.004.332-.037.493-.084.162-.047.095-.276-.067-.229a1.7 1.7 0 0 1-.448.075c-.168.015-.147.252.021.237m-.078-.499c.082.042.164.046.255.052.168.007.178-.232.009-.238a.33.33 0 0 1-.158-.027c-.151-.075-.257.139-.106.214m-.03-.321c.156.033.31.015.465-.016.165-.034.116-.268-.049-.233a.9.9 0 0 1-.379.014c-.167-.026-.204.209-.037.235m-.247-.362c.123.037.25.042.377.043.168 0 .168-.238 0-.238a1 1 0 0 1-.314-.034c-.163-.045-.225.185-.063.23zm-.276-.65a2 2 0 0 0 .449.275c.225.093.458.083.692.046a.12.12 0 0 0-.038-.235c-.189.031-.377.044-.559-.03a1.8 1.8 0 0 1-.403-.249c-.136-.1-.277.092-.141.192m.619-1.988c.106-.039.214-.07.322-.105q.133-.046.265-.095c.159-.057.077-.281-.081-.224q-.128.047-.257.092c-.11.035-.221.068-.33.108-.159.057-.078.281.081.224m-.702.56c.092-.091.193-.172.293-.255.064-.052.126-.106.195-.152a2 2 0 0 1 .19-.107c.152-.074.047-.288-.104-.214a2 2 0 0 0-.22.124 3 3 0 0 0-.214.166c-.105.087-.212.173-.309.27-.12.119.049.288.168.169m.035-.456a1.7 1.7 0 0 0-.207.268 1.2 1.2 0 0 0-.13.296 1 1 0 0 0-.035.249.9.9 0 0 0 .037.294c.045.163.274.099.23-.063a.8.8 0 0 1 .1-.649q.077-.125.179-.231c.115-.123-.059-.286-.174-.163m-.047.55a2 2 0 0 1 .07-.188c.063-.156-.158-.246-.221-.09q-.044.104-.077.211a.12.12 0 0 0 .229.067m-.082.631a.44.44 0 0 1-.024-.303l.024-.064c.057-.159-.167-.239-.224-.08l-.032.094a.68.68 0 0 0 .031.432c.055.159.28.081.225-.078m-.086.039c.014-.071.01-.145.019-.217-.001.05-.051.08-.095.095.16.054.236-.172.076-.226-.114-.021-.177-.039-.219.105-.006.064-.007.128-.015.192-.036.165.197.215.233.051m-.058-.176c.032.081.069.162.088.247-.013-.063.065-.102.125-.077.03.013.002.104-.014.102-.075-.007-.139-.055-.209-.083-.01.048-.038.14.001.183.028.031.069.05.103.074.142-.045.147-.067.169-.194-.173.163-.028.075-.155.086-.006 0 .009.007.014.011l.057.055c.018.022.008.029.006.058q-.01.085-.009.171c.002.055.01.11.015.165q.002.05.008.097c.023.167.26.134.236-.033-.005-.028-.002-.056-.006-.084q-.008-.075-.014-.151a1 1 0 0 1 .008-.148c.006-.087-.005-.168-.067-.235-.04-.044-.142-.159-.212-.135-.046.015-.075.063-.112.094-.013.063-.015.04.007.032q.046-.014.091-.024c.028.024.059.044.083.071.006.006.002.017.002.026 0 .001.01-.083.012-.08-.068-.038-.128-.099-.204-.115-.073-.015-.015.223.017.219.014.012.025.028.04.037.137.077.264-.032.241-.178a2 2 0 0 0-.105-.296c-.074-.152-.288-.048-.215.104m.209.589c.217.045.434.084.655.102.168.014.187-.224.02-.237a5 5 0 0 1-.634-.1c-.166-.028-.206.207-.04.235m-.238-.552q.182.06.36.13c.109.048.217.098.331.133.157.033.323.045.482.018.051-.008.102-.022.153-.033l.159-.049c.161-.05.09-.278-.07-.228l-.141.044a1.14 1.14 0 0 1-.513.02c-.109-.032-.21-.083-.314-.127a6 6 0 0 0-.37-.133c-.16-.054-.236.173-.076.226m8.671 6.684a.8.8 0 0 0 .311.094c.167.025.202-.211.035-.236a.6.6 0 0 1-.223-.063c-.145-.087-.267.118-.123.204m-.25.051c.095.19.225.356.365.515.195.223.446.373.706.506.241.119.497.201.753.28q.339.104.693.116c.169.006.177-.232.009-.238a2.5 2.5 0 0 1-.631-.106 5 5 0 0 1-.716-.265c-.234-.119-.461-.251-.636-.452a2.2 2.2 0 0 1-.332-.466c-.077-.15-.289-.04-.212.11m-.121.498c.083.222.238.404.4.571.265.256.582.445.902.623.233.12.117.063.35.172.153.071.254-.144.101-.216-.223-.104-.111-.05-.335-.164-.3-.167-.598-.342-.847-.58-.138-.141-.271-.294-.345-.48-.052-.16-.279-.086-.226.074m-.354.244c-.038.257.088.49.202.71.134.239.3.46.51.638.138.118.194.147.346.245.162.1.339.168.516.235.158.06.242-.163.085-.223a3 3 0 0 1-.472-.213c-.138-.088-.186-.112-.312-.218a2.1 2.1 0 0 1-.461-.574c-.088-.169-.196-.349-.181-.546.038-.164-.194-.218-.232-.054m-.351.215c.009.282.142.536.265.784.177.333.378.656.632.936.046.051.097.099.145.149l.138.123c.126.112.284-.066.158-.178l-.126-.112a4 4 0 0 1-.733-1.024c-.107-.214-.227-.433-.24-.678a.12.12 0 0 0-.238 0m-.55.116c-.015.375.073.741.174 1.099.075.237.158.473.27.695.089.177.13.231.237.393.092.141.292.01.199-.131-.096-.146-.138-.201-.219-.36a4.5 4.5 0 0 1-.258-.661c-.094-.332-.178-.67-.166-1.018.011-.168-.226-.184-.238-.016m-.46.119c-.042.272-.02.547.011.819.045.316.107.631.202.936.061.198.096.279.171.471.123.286.06.148.187.416.072.152.288.051.216-.102-.122-.259-.062-.125-.181-.401a5.5 5.5 0 0 1-.358-1.349 3 3 0 0 1-.014-.747c.031-.165-.203-.21-.234-.044m-.684.151c-.013.347-.001.695.016 1.042.025.567.128 1.124.292 1.665.107.28.048.145.176.406.075.151.288.045.214-.106-.117-.234-.063-.112-.161-.369a6.5 6.5 0 0 1-.282-1.608c-.016-.34-.028-.681-.015-1.021.006-.168-.232-.177-.238-.009m-.412.099a8 8 0 0 0-.151.867 4.9 4.9 0 0 0 .055 1.412c.016.087.038.174.057.261l.064.227c.045.162.275.098.229-.064l-.06-.214c-.018-.082-.039-.163-.054-.246a4.6 4.6 0 0 1-.054-1.346c.036-.283.079-.565.147-.843.038-.164-.194-.218-.232-.054m-.721.488a21 21 0 0 0-.028.917c0 .448.011.899.094 1.34q.023.109.05.218l.06.188c.051.16.279.088.227-.073l-.054-.168a6.3 6.3 0 0 1-.138-1.501 21 21 0 0 1 .028-.907c.009-.168-.229-.181-.238-.013m-.703.001c-.045.28-.072.562-.095.844a18 18 0 0 0-.066 1.522c0 .169.239.168.238 0a17.5 17.5 0 0 1 .159-2.337c.02-.167-.216-.196-.236-.029m-.314.238c-.183.28-.293.595-.385.914a14 14 0 0 0-.285 1.43c-.025.167.21.202.236.036.072-.471.158-.939.279-1.4.084-.294.184-.584.351-.843.097-.138-.099-.275-.195-.136m-.599.348a8 8 0 0 0-.273.651 8 8 0 0 0-.383 1.523l-.036.325c-.018.168.219.194.237.026l.034-.313c.081-.501.191-1 .37-1.476.081-.211.163-.422.262-.625.078-.149-.133-.26-.211-.111m-.287-.725c-.146.204-.272.42-.393.64a5.5 5.5 0 0 0-.368.793c-.078.225-.089.294-.146.527-.071.376-.039.187-.096.567-.025.167.21.202.236.036.055-.368.025-.186.092-.547.053-.22.064-.286.136-.498.092-.266.222-.516.355-.764.117-.213.239-.423.381-.621.095-.139-.103-.273-.197-.134m-.477-.12a6.4 6.4 0 0 0-.613.71c-.193.248-.339.524-.484.801-.078.149.133.26.211.11.138-.264.278-.529.462-.765.184-.238.371-.473.588-.682.122-.116-.041-.289-.164-.173m-.273-.342c-.188.192-.378.382-.562.578a5.4 5.4 0 0 0-.546.674c-.114.173-.144.237-.242.42l-.106.223c-.072.152.143.255.215.102l.1-.212c.091-.169.121-.235.227-.395a5 5 0 0 1 .525-.649q.28-.295.567-.583c.111-.126-.067-.284-.179-.158m-.102-.135c-.229.115-.433.27-.629.435-.29.247-.547.527-.789.82-.142.169-.26.354-.377.54-.09.143.112.269.202.126a5 5 0 0 1 .359-.515c.233-.282.48-.552.759-.79.18-.152.367-.295.578-.402.152-.073.05-.288-.103-.215m-.648.189a11 11 0 0 0-.576.466 9 9 0 0 0-.684.658c-.101.111-.193.23-.285.349-.103.134.086.279.189.145.087-.113.174-.226.27-.332a9 9 0 0 1 .664-.639 11 11 0 0 1 .561-.454c.137-.099-.003-.292-.14-.193m-.211-.438c-.219.072-.392.234-.561.384l-.138.132c-.121.117.044.289.165.172l.13-.125c.143-.127.287-.268.47-.333a.12.12 0 0 0-.067-.229m.452.158c-.262.076-.51.194-.753.316a3.6 3.6 0 0 0-.822.592c-.13.125-.244.265-.356.405-.105.131.08.28.186.149s.212-.263.334-.381a3.3 3.3 0 0 1 .765-.553c.231-.116.465-.228.714-.3.161-.048.094-.276-.068-.229m-2.595 1.034c.15-.145.314-.275.479-.403a9 9 0 0 1 .421-.294c.14-.094.007-.292-.133-.198a9 9 0 0 0-.434.303 6 6 0 0 0-.505.426c-.117.121.055.287.172.165m.826-.204a13 13 0 0 1 .375-.343 4 4 0 0 1 .406-.329c.13-.086.27-.154.411-.218.154-.069.056-.286-.098-.217a3 3 0 0 0-.448.238 4 4 0 0 0-.429.346q-.193.168-.38.344c-.122.116.043.289.164.172m14.006 3.016c-.049.085-.021.039-.084.136-.091.142.11.271.201.129.068-.106.039-.058.089-.145.085-.145-.12-.266-.206-.12m.114-.006c-.157.086-.308.181-.466.264-.112.054-.057.029-.165.077-.154.069-.056.286.098.217.116-.052.057-.025.178-.083.157-.082.307-.175.461-.262.151-.075.045-.288-.106-.213m-.62.296c-.203.149-.445.216-.685.278-.231.055-.467.08-.703.096-.168.012-.152.249.017.238a4.6 4.6 0 0 0 .746-.103c.27-.07.542-.15.77-.32.134-.102-.011-.292-.145-.189m.004.416c-.153.112-.336.158-.519.194-.344.048-.688.088-1.033.132l-.151.012c-.168.013-.149.251.019.237l.162-.013c.35-.044.7-.085 1.049-.134.22-.045.439-.104.621-.242.131-.105-.018-.291-.149-.186m-.085.319c-.136.114-.3.169-.469.212-.35.068-.708.017-1.058-.022-.168-.019-.194.218-.027.237.38.043.766.095 1.145.016.208-.055.411-.126.575-.271.121-.117-.044-.289-.165-.172m-.276.371c-.102.141-.271.203-.429.26-.232.073-.474.101-.714.131-.167.021-.138.257.029.237.258-.032.519-.064.768-.144.21-.079.426-.17.553-.366.083-.146-.124-.264-.207-.118m-.104.407c-.128.123-.294.191-.457.255-.349.125-.718.175-1.082.23l-.164.023c-.167.023-.134.259.033.236l.167-.023c.382-.059.769-.112 1.134-.245.197-.079.396-.164.547-.319.112-.126-.066-.284-.178-.158m.024.239a2.2 2.2 0 0 1-.311.297c-.18.14-.382.247-.594.33-.249.085-.514.093-.771.13-.167.024-.133.26.033.236.277-.04.561-.048.826-.144.234-.094.458-.211.657-.368a2.4 2.4 0 0 0 .344-.33c.107-.131-.078-.281-.185-.151m-1.05 1.851c.144-.045.271-.131.393-.217l.203-.149c.003-.002.011-.004.009-.006-.188-.174-.128-.198-.222-.107-.046.044-.04.037-.09.079l-.048.034c-.136.099.003.292.14.193l.062-.045a2 2 0 0 0 .144-.132c.012-.013.044-.025.035-.04-.041-.068-.106-.117-.163-.172-.002-.002-.006.004-.008.006l-.198.145a1.2 1.2 0 0 1-.329.185c-.16.052-.087.279.073.227m1.095-1.905a1.6 1.6 0 0 1-.289.466c-.196.244-.447.388-.73.508-.18.065-.365.114-.549.165-.162.045-.098.275.065.229.194-.054.389-.106.578-.175.331-.142.59-.294.821-.576.133-.163.258-.334.329-.536.058-.158-.166-.24-.224-.081m-1.704 1.536c.173 0 .342-.034.51-.076.169-.044.314-.139.455-.239.118-.081.224-.177.33-.273q.13-.121.253-.251c.115-.123-.06-.286-.175-.162q-.116.122-.239.237c-.098.09-.197.179-.307.254a1.2 1.2 0 0 1-.375.202c-.149.038-.3.069-.455.069-.168.002-.164.241.004.238m1.186-.614c-.02.14-.106.242-.2.342-.188.192-.426.315-.669.424-.224.096-.46.165-.698.214a1.9 1.9 0 0 1-.568.02 1 1 0 0 1-.212-.054c-.16-.053-.235.173-.075.226.086.028.172.055.263.065.214.021.43.018.641-.024a4 4 0 0 0 .747-.23c.271-.122.536-.263.746-.479.123-.134.232-.277.26-.462.03-.166-.205-.208-.235-.042m-2.335 1.686q.264.016.528.005c.187-.002.369-.043.549-.092a1.6 1.6 0 0 0 .43-.184c.147-.094.268-.216.375-.352.105-.132-.083-.28-.187-.148a1.3 1.3 0 0 1-.313.297 1.4 1.4 0 0 1-.367.157 2 2 0 0 1-.494.084 5 5 0 0 1-.505-.005c-.168-.011-.184.226-.016.238m-1.156.083c.113.094.249.147.387.193.165.051.334.083.505.104.166.015.334.014.501.006a4 4 0 0 0 .421-.045 2 2 0 0 0 .325-.09 1.3 1.3 0 0 0 .26-.137c.065-.05.119-.113.171-.175.108-.13-.076-.282-.183-.152a1 1 0 0 1-.123.131 1 1 0 0 1-.206.11 2 2 0 0 1-.284.079 3 3 0 0 1-.392.042 3 3 0 0 1-.46-.005 2.6 2.6 0 0 1-.459-.094.9.9 0 0 1-.307-.148c-.129-.109-.283.073-.154.182m1.185.947q.174-.01.344-.05c.099-.024.191-.066.281-.111.147-.08.112-.027-.047-.247a2 2 0 0 1-.363.182c-.23.095-.46.194-.691.287a5 5 0 0 0-.427.187c-.035.015-.069.036-.107.045-.162.046-.097.275.065.229q.078-.024.151-.062c.132-.068.269-.124.407-.178l.695-.289c.131-.056.264-.111.383-.191-.135-.229-.047-.243-.175-.175a1 1 0 0 1-.227.092q-.152.036-.307.045c-.168.013-.15.25.018.238m-1.36-.555c.129.1.275.173.425.235.201.077.414.098.627.097.183-.006.365-.031.546-.054a9 9 0 0 0 .404-.06 1.2 1.2 0 0 0 .345-.129c.147-.082.031-.29-.116-.208a1 1 0 0 1-.271.103q-.196.034-.393.059c-.172.021-.344.045-.518.052a1.5 1.5 0 0 1-.535-.079 1.6 1.6 0 0 1-.374-.205c-.135-.101-.278.09-.143.19m-.518.324c.136.08.28.143.425.202q.224.089.46.138c.145.029.293.034.44.032a2 2 0 0 0 .455-.061 2 2 0 0 0 .29-.091c.157-.061.071-.283-.086-.222a2 2 0 0 1-.26.082 2 2 0 0 1-.402.055 2 2 0 0 1-.386-.027 2.6 2.6 0 0 1-.42-.126 3 3 0 0 1-.387-.182c-.142-.09-.27.111-.128.201m-.459.048c.078.114.182.201.297.275.117.07.247.113.379.145q.178.037.358.066c.121.023.244.033.367.039.099.003.049.002.15.003.169.003.173-.235.004-.238l-.143-.003a2.4 2.4 0 0 1-.338-.036q-.172-.029-.343-.063a1.1 1.1 0 0 1-.305-.114.8.8 0 0 1-.226-.205c-.093-.141-.292-.01-.199.131m6.716-6.3a2.7 2.7 0 0 1-.505.482 5 5 0 0 1-.802.497c-.15.077-.04.289.11.212.294-.152.579-.319.841-.522a3 3 0 0 0 .546-.525c.102-.134-.088-.279-.19-.144m.133-.396c-.113.175-.271.316-.424.455a7 7 0 0 1-1.002.727c-.213.13-.443.226-.678.307-.159.055-.081.28.078.225.251-.087.496-.19.724-.329a7.5 7.5 0 0 0 1.038-.755c.173-.158.351-.319.475-.521.079-.149-.132-.26-.211-.111m-2.687 1.728c.189.065.384.072.581.058.307-.04.59-.166.867-.299.152-.073.049-.288-.103-.215-.25.12-.505.237-.781.276a1.2 1.2 0 0 1-.497-.05c-.162-.047-.228.182-.066.229m2.545-1.766a12 12 0 0 1-.683.445q-.518.32-1.076.561c-.22.083-.112.046-.326.113-.161.051-.089.278.071.227.23-.073.114-.033.349-.122a8.5 8.5 0 0 0 1.107-.577c.234-.144.467-.29.691-.45.14-.094.006-.292-.133-.198m.643-.474a3.5 3.5 0 0 1-.474.495 7.3 7.3 0 0 1-.953.724c-.291.189-.602.344-.907.509a4 4 0 0 1-.348.175c-.154.068-.058.286.097.218a4 4 0 0 0 .365-.183c.31-.168.627-.326.923-.518.346-.226.68-.47.985-.749.179-.165.359-.331.503-.528.101-.135-.09-.278-.19-.143m.351-.893a6 6 0 0 1-.271.446 5 5 0 0 1-.55.677 6 6 0 0 1-.735.613q-.199.145-.404.281c-.14.094-.007.292.133.198a11 11 0 0 0 .413-.287c.267-.198.531-.402.765-.639a5 5 0 0 0 .576-.708 6 6 0 0 0 .276-.454c.09-.143-.112-.269-.202-.126m-.259.353a4 4 0 0 1-.296.329c-.21.211-.439.4-.673.583-.26.198-.54.364-.822.528q-.159.092-.314.191c-.142.09-.015.291.127.201a9 9 0 0 1 .307-.186c.291-.169.581-.342.849-.546.242-.189.478-.385.695-.602q.165-.164.311-.345c.107-.13-.076-.282-.184-.152m-3.545 1.933c.098.038.195.075.297.1.106.026.214.032.323.029a4 4 0 0 0 .355-.034c.136-.011.266-.046.395-.09a2.5 2.5 0 0 0 .44-.197c.197-.111.38-.244.56-.38l.1-.077c.133-.103-.012-.292-.145-.189l-.098.075a5 5 0 0 1-.534.362 2.2 2.2 0 0 1-.4.179c-.113.038-.228.07-.348.079a4 4 0 0 1-.334.032 1 1 0 0 1-.26-.022c-.095-.022-.185-.059-.276-.094-.16-.054-.236.172-.076.226m2.498-1.451a3 3 0 0 1-.349.345 3 3 0 0 1-.411.293c-.12.064-.245.117-.367.174-.084.038-.162.089-.252.109a1.2 1.2 0 0 1-.223.009 5 5 0 0 0-.221-.011c-.05-.002-.1 0-.15-.002-.013.002-.072-.014-.018.002-.15-.076-.258.136-.108.213a.3.3 0 0 0 .117.024l.152.003q.11.003.22.011c.096.003.193.003.288-.015.105-.027.201-.075.297-.125.129-.061.26-.116.386-.184q.238-.14.448-.32c.137-.12.275-.243.387-.387.097-.138-.099-.275-.195-.137m1.34-1.291-.249.379a3 3 0 0 1-.484.524c-.171.153-.349.3-.525.448a24 24 0 0 0-.458.401q-.175.161-.357.313a1.6 1.6 0 0 1-.271.163c-.077.033-.158.059-.236.088l-.259.1-.188.077c-.124.059-.067.036-.015.256.087.013.176.005.263-.005.095-.018.192-.028.287-.041a.8.8 0 0 0 .266-.085c.126-.075.244-.164.363-.249.169-.115.318-.254.466-.394a13 13 0 0 1 .51-.462c.169-.14.334-.284.485-.444a4 4 0 0 0 .295-.381c.072-.106.119-.225.166-.344a5 5 0 0 0 .155-.445c-.005.002.005-.008.002-.008-.266.007-.201-.052-.257.093-.082.16-.201.297-.325.426a1.7 1.7 0 0 1-.314.259q-.109.06-.214.127a1 1 0 0 0-.17.141l-.024.027c-.113.125.064.285.177.16l.018-.02q.06-.06.13-.108.102-.065.206-.123a2 2 0 0 0 .363-.298c.147-.153.287-.316.377-.51.022-.064.036-.09.041-.155.006-.076-.071-.36-.238-.08l-.036.118a4 4 0 0 1-.112.309c-.04.102-.079.204-.14.295a4 4 0 0 1-.272.353 5 5 0 0 1-.466.426 13 13 0 0 0-.519.47c-.14.132-.281.264-.44.373-.109.078-.217.159-.33.23a.6.6 0 0 1-.193.062c-.095.013-.191.023-.286.041a1 1 0 0 1-.186.008c.031.255-.033.243.062.196l.181-.075.254-.098c.086-.032.173-.06.257-.097a2 2 0 0 0 .318-.193 10 10 0 0 0 .367-.32q.223-.201.451-.396c.178-.15.358-.298.531-.454.191-.173.377-.353.522-.569l.249-.38c.093-.14-.106-.272-.199-.131zm.111-.765c-.072.14-.136.283-.206.423-.073.157-.153.31-.25.454a3 3 0 0 1-.339.389 16 16 0 0 1-.481.45 3.6 3.6 0 0 1-.517.401c-.107.066-.222.115-.336.165-.154.068-.058.286.096.218.125-.055.251-.11.368-.182a4 4 0 0 0 .549-.425 17 17 0 0 0 .49-.459c.131-.133.26-.27.367-.424q.151-.23.265-.481c.067-.135.129-.273.197-.408.086-.145-.119-.266-.205-.121m-14.492 10.92c.007.1.002.046.017.16.023.167.26.134.236-.033-.013-.092-.009-.05-.015-.127a.12.12 0 0 0-.238 0m-.323-.344-.023.214c-.018.168.219.193.237.025l.023-.21c.02-.167-.216-.196-.236-.029m-.22-.267a3 3 0 0 0-.148.371c-.054.16.171.236.226.077.04-.117.082-.233.137-.345.073-.152-.142-.255-.215-.103m-.293-.116c-.09.143-.148.302-.2.462s.175.234.227.073c.045-.141.096-.281.175-.408.09-.143-.112-.27-.202-.127m-.407-.032a.7.7 0 0 0-.206.291c-.071.153.146.253.216.1a.6.6 0 0 1 .114-.187c.144-.088.02-.291-.124-.204m.953-.137a4 4 0 0 1-.179-.622l-.022-.145c-.026-.166-.262-.129-.236.037l.025.158c.048.225.105.448.19.662.063.156.284.067.221-.089m-.544-.174q-.079-.319-.161-.638a2.3 2.3 0 0 1-.069-.393c-.018-.168-.255-.143-.237.025.015.144.035.287.075.426q.082.32.161.639c.042.163.273.104.231-.06m-.395-.138-.017-.084c-.033-.165-.267-.119-.233.047l.019.094c.04.164.271.108.232-.056m-.152-.261c-.043-.156-.033-.318-.028-.478.006-.168-.233-.176-.238-.008-.006.184-.014.371.036.551.046.162.275.096.229-.065m-.442-.079a2.3 2.3 0 0 1-.017-.535c.006-.054.018-.107.026-.161l.054-.191c.045-.162-.185-.226-.23-.064l-.06.217q-.017.091-.029.184a2.6 2.6 0 0 0 .019.579c.021.167.257.138.236-.029m-.396-.303c-.003-.189-.01-.381.016-.569.008-.058.022-.116.033-.174.031-.166-.204-.209-.234-.044-.012.066-.027.131-.036.197-.027.2-.021.404-.017.606.012.168.25.151.238-.017m-.324-.402c-.009-.161.041-.308.099-.456.06-.157-.162-.242-.223-.085-.066.175-.124.351-.115.541 0 .168.238.168.238 0m-.225-.683c.044-.114.099-.222.156-.33.079-.149-.132-.26-.211-.111a3 3 0 0 0-.168.355c-.061.157.161.243.222.086m-.161-.56.055-.121c.07-.154-.147-.252-.217-.099l-.054.119c-.071.153.145.254.216.101m-.156-.343c.038-.095.087-.185.135-.275.079-.149-.132-.26-.211-.111-.052.098-.104.195-.145.298-.063.156.158.245.221.089m-.179-.569c.032-.111.082-.217.129-.323.068-.154-.15-.25-.218-.096-.052.118-.107.236-.142.361-.041.163.19.222.231.059m-1.131-2.503q.059-.13.12-.257c.072-.152-.144-.254-.216-.101q-.064.134-.125.27c-.063.156.158.246.221.089m.151.423.072-.162c.068-.154-.15-.25-.218-.096l-.071.161c-.069.154.148.251.217.097m.292.539c.011-.119.051-.232.086-.345.051-.161-.177-.233-.227-.072-.043.136-.089.273-.097.416a.12.12 0 0 0 .238 0m.195.422c.049-.156.127-.3.202-.445.077-.15-.135-.259-.212-.109-.082.16-.168.32-.22.493-.044.163.187.224.23.061m.239.623c.056-.242.164-.466.272-.688.127-.235.061-.118.2-.353.086-.145-.119-.267-.205-.121-.146.246-.076.123-.21.37-.119.244-.237.492-.294.758-.024.167.212.201.236.034M16.3 39.017a2 2 0 0 1 .1-.355c.067-.134.159-.253.261-.362.062-.062.141-.105.217-.147.132-.067.253-.154.376-.237.139-.095.005-.292-.134-.197-.116.079-.231.162-.357.225-.098.055-.198.111-.276.193-.121.13-.23.273-.307.435a2 2 0 0 0-.113.399c-.033.165.201.211.234.046m-.079-.518c.175-.238.352-.474.548-.696l.15-.16c.115-.123-.059-.286-.174-.163l-.155.165a10 10 0 0 0-.548.696c-.111.126.067.284.179.158m-.004-.231c.037-.215.12-.42.193-.625.11-.335.275-.646.457-.947.087-.144-.117-.267-.204-.123-.19.315-.362.64-.478.99-.078.22-.166.44-.204.671-.024.167.213.2.236.033m.316-3.088c.041.144.023.293.016.44-.009.168.23.18.238.012.009-.174.025-.352-.026-.521-.049-.161-.277-.091-.228.07m-.193-.135q.157.04.315.075.088.026.178.013c.141-.045.246-.158.351-.258.121-.117-.044-.289-.165-.172-.072.07-.144.142-.23.196-.024.012-.056-.011-.081-.011l-.312-.075c-.164-.039-.22.193-.055.232m.618-5.065c.118.039.233.088.351.126.177.055.36.049.54.021.166-.026.129-.262-.038-.235a.95.95 0 0 1-.43-.012c-.12-.039-.235-.089-.355-.127-.161-.05-.231.178-.07.228m-.301-.064a10 10 0 0 0 .417-.084c.13-.03.26-.06.393-.075.107-.004.21-.027.313-.056.162-.047.095-.276-.066-.229a1 1 0 0 1-.274.048c-.141.016-.28.047-.418.079q-.201.045-.404.082c-.166.028-.127.263.039.235m.041-.106a.4.4 0 0 1 .088-.179 1 1 0 0 1 .181-.121 2 2 0 0 1 .281-.112c.145-.05.299-.059.451-.063.168-.005.16-.244-.008-.238-.174.006-.35.017-.516.075q-.166.05-.323.13c-.09.049-.178.104-.25.178a.65.65 0 0 0-.139.286c-.033.165.201.211.234.046m1.349 4.667q.142.003.284-.015c.167-.021.137-.258-.03-.236a2 2 0 0 1-.27.014c-.168.012-.151.25.017.238m-.13-.493c.085.014.164-.007.246-.026.164-.041.106-.272-.058-.231-.055.015-.106.03-.163.02-.168-.018-.193.219-.025.237m-.106-.484c.081.03.166.04.251.048.168.016.191-.221.023-.237-.063-.006-.127-.011-.187-.033-.157-.061-.244.161-.087.222m-.204-.414c.095.033.189.026.287.02a.12.12 0 0 0-.02-.237.4.4 0 0 1-.187-.007c-.159-.056-.239.168-.08.225m-.236-.72c.13.065.267.129.413.143.043.004.085.002.128.003.169.001.17-.237.001-.238a.8.8 0 0 1-.429-.117c-.148-.081-.262.129-.114.209m-.438-.985q.144.142.307.262c.125.095.271.146.424.176.108.012.053.008.165.01.169.001.17-.237.002-.238-.083 0-.042.002-.123-.006a.75.75 0 0 1-.327-.134 2.4 2.4 0 0 1-.282-.241c-.121-.117-.287.055-.165.172m-.174-.279c.103.07.219.115.337.153a.9.9 0 0 0 .474.027l.107-.035c.16-.054.083-.28-.077-.225l-.075.027a.66.66 0 0 1-.356-.02 1.1 1.1 0 0 1-.278-.124c-.14-.094-.272.105-.132.198m-.089-.36c.168.032.337.034.507.027s.158-.245-.01-.238c-.155.007-.31.005-.463-.025-.167-.024-.2.212-.033.236m4.373 3.117a3.7 3.7 0 0 1-.57.39c-.147.082-.031.29.116.208q.324-.179.608-.416c.129-.109-.025-.291-.154-.182m-.017-.725c-.071.187-.21.33-.356.461l-.106.078c-.136.1.006.292.142.191l.124-.092c.173-.157.335-.33.419-.552.061-.157-.161-.243-.222-.086m-.124-.782c-.024.179-.116.332-.217.478-.095.139.102.273.197.134.122-.181.224-.352.255-.573.028-.166-.207-.205-.235-.039m-.12-.855c-.032.22-.128.416-.232.61l-.096.157c-.088.144.115.268.203.124l.103-.168c.114-.214.219-.43.255-.672.036-.165-.197-.215-.233-.05m-.263-.589c.005.166-.054.311-.13.455-.089.138-.042.072-.14.197-.105.132.083.28.187.148.117-.15.062-.071.165-.235.09-.177.162-.357.157-.559.004-.169-.234-.174-.238-.006m-.031-.616a4 4 0 0 1-.269.533c-.107.144-.048.075-.177.205-.117.121.054.287.171.166.154-.161.084-.077.211-.25a4.5 4.5 0 0 0 .285-.565c.063-.156-.158-.246-.221-.09m-.17-.494a1.2 1.2 0 0 1-.213.324c-.108.129.075.282.183.152.1-.12.195-.245.253-.391.06-.157-.163-.242-.223-.085m-.182-.649a1.6 1.6 0 0 1-.329.423c-.12.119.048.288.168.169.15-.15.292-.312.383-.506.061-.157-.161-.243-.222-.086m-.173-.472a1.6 1.6 0 0 1-.273.405l-.063.056c-.125.113.034.29.16.177l.079-.072a1.8 1.8 0 0 0 .316-.47c.067-.155-.151-.25-.219-.095m-.221-.521a.7.7 0 0 1-.159.299.8.8 0 0 1-.213.183c-.144.088-.019.291.125.203.104-.065.2-.14.276-.238a.96.96 0 0 0 .205-.398c.034-.165-.199-.214-.233-.049m-.253-.368a.45.45 0 0 1-.102.225.3.3 0 0 1-.166.101l-.096.03c-.16.051-.088.278.072.227l.095-.03a.6.6 0 0 0 .281-.18.7.7 0 0 0 .152-.345c.019-.168-.217-.195-.237-.028m10.823 8.118q.118.13.261.231c.105.08.226.132.35.177.144.044.066.024.235.058.331.063.42-.405.089-.468-.112-.02-.058-.006-.163-.038a.8.8 0 0 1-.234-.115 1 1 0 0 1-.185-.163c-.226-.25-.58.069-.354.319m-3.655 9.112q.199.061.395.13c.157.056.314.115.473.165q.208.063.421.103c.136.027.275.04.413.047a1.8 1.8 0 0 0 .467-.029c.147-.03.292-.067.437-.101a13 13 0 0 0 .376-.092q.176-.045.35-.101.175-.048.337-.13a2 2 0 0 0 .258-.169c.086-.059.16-.133.23-.208q.068-.074.133-.15.029-.032.064-.059a1 1 0 0 0 .122-.118l.088-.1q.056-.069.105-.141.053-.075.109-.147.062-.075.12-.151.026-.031.056-.059c.025-.02.045-.045.069-.065.009-.003.035-.027.05-.037a.6.6 0 0 0 .13-.126q.05-.062.095-.129.038-.056.08-.11.054-.076.096-.16c.16-.297-.26-.522-.42-.225q-.027.053-.06.102-.044.058-.085.117-.037.053-.078.105c-.027.034-.003.013-.034.036q-.046.034-.091.07l-.077.073q-.056.052-.104.11-.06.079-.123.155-.061.08-.12.162-.037.055-.078.107l-.079.09a.5.5 0 0 1-.068.067q-.068.054-.126.119l-.121.137a1 1 0 0 1-.169.153 2 2 0 0 1-.19.127 1.3 1.3 0 0 1-.261.099q-.163.053-.329.095a13 13 0 0 1-.364.089c-.137.032-.274.067-.412.096a1.4 1.4 0 0 1-.359.022 2.4 2.4 0 0 1-.344-.039 4 4 0 0 1-.371-.09c-.155-.048-.306-.106-.458-.16a10 10 0 0 0-.402-.131c-.32-.106-.47.345-.15.452m-8.51-.619q.123.139.255.268c.094.101.203.186.315.266q.138.105.289.192.143.078.291.146.12.062.246.111.119.051.241.092.118.043.237.079a3 3 0 0 0 .217.068c.05.012.101.02.149.039q.085.039.166.085c.058.034.109.078.16.123q.123.114.222.249c.099.136.189.278.279.42.181.284.583.028.402-.256-.098-.153-.195-.306-.302-.453a2.3 2.3 0 0 0-.286-.316 1.5 1.5 0 0 0-.24-.18 2 2 0 0 0-.231-.116q-.095-.035-.195-.054a2 2 0 0 1-.195-.061q-.114-.034-.227-.076a3 3 0 0 1-.215-.082 2 2 0 0 1-.219-.099q-.133-.062-.262-.131a2 2 0 0 1-.249-.166 1.6 1.6 0 0 1-.254-.214 5 5 0 0 1-.236-.249c-.224-.252-.58.065-.356.316m.33 9.462a8 8 0 0 1-.018.401 8 8 0 0 1-.093.7c-.025.119-.04.24-.056.36-.019.141-.025.284-.037.426-.008.112-.039.22-.07.328-.027.095-.062.188-.091.282a2 2 0 0 0-.061.244 1 1 0 0 0-.014.119c-.024.336.451.37.475.034l.006-.062a2 2 0 0 1 .048-.193c.031-.099.068-.196.095-.296a2 2 0 0 0 .086-.416c.011-.136.018-.272.035-.408.014-.113.028-.225.052-.336q.03-.166.052-.332.029-.208.047-.417.015-.213.02-.427c.006-.337-.47-.345-.476-.009m12.053-8.588a8 8 0 0 1-.056.353l-.053.276a2 2 0 0 1-.05.206 1.2 1.2 0 0 0-.044.243 3 3 0 0 0-.003.263c.004.109.031.214.065.316q.047.13.098.26.047.116.085.234.03.111.053.224l.05.245.079.321c.025.085.033.173.038.261.008.128-.003.256-.014.384a15 15 0 0 0-.035.455 7 7 0 0 1-.033.446q-.025.228-.052.455a12 12 0 0 0-.077.964q-.005.192-.017.382a8 8 0 0 0-.01.386q-.005.19.012.38c.017.129.029.259.047.387q.03.201.065.401.038.201.072.402.033.177.064.355.038.177.063.357c.014.118.021.236.033.354.017.133.025.267.038.4q.019.211.059.419c.017.106.047.209.081.31.024.073.049.147.064.222q.02.108.054.214.025.076.053.151c.116.316.563.152.447-.164q-.025-.068-.048-.137a1.4 1.4 0 0 1-.041-.165 3 3 0 0 0-.078-.271 1.6 1.6 0 0 1-.065-.248 4 4 0 0 1-.052-.378c-.014-.135-.022-.27-.039-.405-.014-.123-.02-.247-.036-.369a5 5 0 0 0-.065-.37l-.063-.349q-.034-.205-.073-.409a18 18 0 0 1-.063-.386c-.017-.121-.028-.243-.044-.365a3 3 0 0 1-.01-.332 7 7 0 0 1 .01-.365q.012-.195.017-.389.009-.217.025-.434.019-.247.049-.493.028-.231.053-.463.025-.233.035-.467.014-.222.035-.443a3 3 0 0 0 .015-.452 1.7 1.7 0 0 0-.05-.344l-.076-.306-.053-.256c-.02-.085-.037-.17-.061-.254a4 4 0 0 0-.096-.267q-.048-.12-.091-.241a.7.7 0 0 1-.041-.182 2 2 0 0 1 .002-.205.7.7 0 0 1 .028-.153q.037-.125.06-.251c.017-.094.038-.186.054-.28q.033-.186.059-.372c.044-.334-.429-.396-.472-.062zm-14.53-11.276c.009.091.004.183-.004.274q-.016.164-.056.323c-.028.105-.058.21-.08.317a7 7 0 0 0-.06.371c-.015.141-.026.283-.043.424-.018.146-.045.291-.07.436a11 11 0 0 0-.063.478c-.016.149-.033.297-.043.447a8 8 0 0 0-.01.492c-.002.19.02.377.052.564q.046.243.105.484.07.27.157.534.087.268.199.526l.255.551.232.505q.103.236.208.47l.207.431q.094.191.171.39.07.188.131.379c.035.101.058.206.086.31l.068.262q.03.146.071.29a1.6 1.6 0 0 0 .144.352q.067.117.118.241.06.151.145.291c.045.075.103.14.153.212q.056.09.105.186c.031.063.064.124.09.188q.048.119.088.24l.092.296q.052.173.117.339c.039.102.08.203.114.307q.05.164.079.333.027.188.036.379c.008.155.008.31.009.465v.504q.001.241-.001.484c-.001.163-.015.324-.026.486q-.015.249-.025.498a8 8 0 0 1-.029.466q-.021.239-.038.477c-.008.14-.024.28-.035.421a24 24 0 0 0-.027.488c-.005.179-.018.358-.029.537q-.016.269-.027.538l-.015.451c-.006.138-.006.275-.011.413-.001.111-.014.222-.027.333q-.018.152-.044.302-.03.196-.07.388l-.038.197c-.064.331.404.421.468.09l.038-.194a8 8 0 0 0 .072-.406c.017-.108.036-.215.048-.324.014-.123.028-.247.03-.371.005-.137.005-.275.011-.412l.015-.449q.011-.265.027-.53c.01-.18.023-.361.029-.541q.01-.236.026-.473c.011-.142.027-.283.035-.425q.017-.236.038-.471a8 8 0 0 0 .03-.486q.01-.243.024-.485c.011-.171.026-.342.027-.514l.001-.488v-.506c-.001-.164-.001-.327-.01-.491a5 5 0 0 0-.043-.433 3 3 0 0 0-.095-.4q-.057-.166-.122-.329a4 4 0 0 1-.105-.305q-.047-.155-.096-.309-.046-.139-.101-.274a4 4 0 0 0-.107-.225 3 3 0 0 0-.138-.24c-.044-.062-.093-.12-.135-.184a1.4 1.4 0 0 1-.114-.23 3 3 0 0 0-.139-.284 1 1 0 0 1-.104-.254 5 5 0 0 1-.068-.279q-.034-.135-.07-.269c-.03-.111-.055-.224-.093-.333a10 10 0 0 0-.139-.402 6 6 0 0 0-.186-.423l-.203-.423-.209-.47q-.114-.254-.232-.505l-.251-.543a6 6 0 0 1-.182-.482 8 8 0 0 1-.147-.5 9 9 0 0 1-.099-.451 2.6 2.6 0 0 1-.045-.486 8 8 0 0 1 .009-.459c.009-.143.026-.284.041-.426q.024-.226.059-.45c.026-.153.054-.305.073-.459.017-.139.028-.279.042-.418q.023-.17.055-.338c.02-.102.051-.201.077-.302.031-.129.056-.26.067-.393a2 2 0 0 0 .004-.36c-.031-.336-.505-.292-.475.044M28.342 27.5q-.006-.172.013-.345c.011-.115.044-.227.072-.339.028-.11.048-.222.068-.334a4 4 0 0 1 .138-.532 6 6 0 0 1 .16-.379 2 2 0 0 1 .151-.254c.043-.065.095-.121.149-.176q.103-.094.218-.172a.7.7 0 0 1 .231-.09q.16-.031.322-.04.15-.008.301-.005c.128.006.254.02.381.034q.204.016.406.044c.145.02.292.025.438.029a1.2 1.2 0 0 1 .276.026q.125.024.247.058c.084.024.17.041.254.065q.1.029.179.095c.061.055.108.124.158.189q.1.12.195.246c.08.115.163.227.238.344.076.127.144.258.213.388q.092.17.167.348c.043.099.07.203.102.305.045.131.074.267.1.402l.085.434c.023.109.022.22.022.33l-.005.427a6 6 0 0 0 .005.49q.009.185.057.364c.03.113.083.217.142.317q.043.07.068.147c.018.061.019.127.023.191q.01.164.01.327.002.177-.003.353-.01.211-.015.422-.005.194.001.387c.002.089.013.178.02.267q.009.099.004.197a.6.6 0 0 1-.018.12q-.021.084-.039.169l-.005.018c-.087.325.373.448.46.123l.009-.033.04-.171a1 1 0 0 0 .029-.199q.007-.133-.005-.265c-.007-.081-.017-.161-.019-.242a6 6 0 0 1-.001-.36q.005-.209.015-.419.006-.186.003-.373a6 6 0 0 0-.011-.354c-.007-.108-.013-.217-.049-.319a1.2 1.2 0 0 0-.106-.229.8.8 0 0 1-.093-.203 1.2 1.2 0 0 1-.041-.264 6 6 0 0 1-.004-.455l.005-.434c0-.141-.001-.282-.03-.42l-.086-.437a4 4 0 0 0-.112-.451c-.037-.119-.07-.24-.12-.354a5 5 0 0 0-.183-.381c-.075-.143-.15-.286-.234-.425q-.125-.188-.257-.371a7 7 0 0 0-.199-.252c-.074-.095-.144-.195-.239-.271a1 1 0 0 0-.346-.181c-.085-.024-.171-.042-.256-.066a4 4 0 0 0-.276-.065 1.7 1.7 0 0 0-.361-.036 4 4 0 0 1-.389-.025 8 8 0 0 0-.416-.045c-.141-.015-.281-.031-.423-.037q-.17-.003-.341.006a3 3 0 0 0-.4.051 1.2 1.2 0 0 0-.392.161q-.154.104-.289.231a1.7 1.7 0 0 0-.201.239 2.4 2.4 0 0 0-.192.324 6 6 0 0 0-.176.418 3 3 0 0 0-.089.291q-.04.157-.069.317c-.019.101-.037.203-.062.303-.034.136-.071.271-.084.411a3 3 0 0 0-.014.409c.014.336.49.316.476-.02zm-1.831 1.368q.16-.051.318-.105c.11-.041.216-.095.32-.15.086-.049.169-.104.256-.151q.134-.063.26-.14l.26-.152q.113-.061.227-.12c.078-.039.154-.082.231-.12l.245-.121q.121-.054.246-.104.126-.044.257-.079l.243-.061a1 1 0 0 1 .18-.021 2 2 0 0 1 .251.004q.121.015.239.047c.075.023.15.041.223.07a1 1 0 0 1 .162.086q.088.063.165.139.09.093.166.199.084.119.163.24l.162.251q.075.119.13.247.065.143.137.281.067.133.137.265t.146.262q.094.152.191.301c.063.104.13.204.192.308l.187.335c.058.103.125.2.187.3q.092.171.194.336.089.14.181.277c.07.109.158.204.248.296.076.077.146.16.219.24l.219.239c.098.104.212.19.323.279.085.067.162.145.238.221l.249.25.203.223q.105.126.206.255.101.14.187.29c.054.087.094.181.132.275l.136.349c.044.108.07.222.096.335.03.12.05.243.071.365q.023.153.041.306l.032.328q.012.129.009.258a4 4 0 0 1-.033.319 2 2 0 0 1-.085.326c-.04.114-.098.221-.155.327q-.147.247-.277.503c-.09.19-.203.369-.325.54a6 6 0 0 1-.435.516c-.141.152-.29.296-.435.444a3 3 0 0 0-.444.597q-.178.301-.305.628c-.068.177-.117.361-.167.544a6 6 0 0 1-.163.524 10 10 0 0 1-.198.509 7 7 0 0 1-.226.46q-.128.238-.253.477a7 7 0 0 1-.24.455c-.106.168-.224.328-.33.496-.084.13-.155.269-.225.407q-.106.206-.21.413c-.077.15-.135.31-.19.47a3.5 3.5 0 0 0-.141.535c-.064.331.404.421.468.09a3 3 0 0 1 .125-.471c.048-.14.097-.279.165-.41l.209-.41c.064-.125.127-.25.203-.369.109-.172.231-.336.338-.509q.135-.234.253-.478.124-.239.252-.475c.085-.163.169-.326.242-.495q.112-.266.209-.536.1-.274.173-.556c.046-.167.09-.335.151-.496a3.6 3.6 0 0 1 .27-.558c.108-.181.225-.357.374-.507s.3-.299.445-.454c.167-.18.33-.365.475-.565.135-.191.26-.389.361-.6q.127-.251.271-.493c.07-.13.14-.261.187-.401.045-.134.084-.27.105-.41q.027-.188.038-.377.003-.155-.011-.309-.015-.169-.033-.338a8 8 0 0 0-.045-.336c-.023-.131-.045-.262-.076-.391a3 3 0 0 0-.114-.396l-.14-.361a2.3 2.3 0 0 0-.162-.336 4 4 0 0 0-.219-.338q-.112-.144-.229-.284-.107-.12-.218-.238-.127-.129-.255-.256c-.089-.089-.178-.179-.278-.256-.093-.074-.19-.146-.272-.232l-.213-.232c-.076-.084-.15-.171-.23-.252-.07-.073-.141-.146-.195-.233q-.087-.13-.171-.261c-.069-.11-.131-.224-.194-.337-.06-.096-.124-.189-.179-.288l-.19-.34c-.065-.108-.134-.212-.2-.32q-.093-.142-.182-.286a8 8 0 0 1-.135-.243l-.133-.258q-.067-.129-.127-.26a2 2 0 0 0-.16-.306q-.084-.132-.17-.263t-.176-.259a2 2 0 0 0-.214-.255 2 2 0 0 0-.232-.195 1.4 1.4 0 0 0-.258-.136 3 3 0 0 0-.273-.087 2 2 0 0 0-.322-.061 3 3 0 0 0-.311-.005 1.3 1.3 0 0 0-.286.037q-.122.032-.246.062a4 4 0 0 0-.301.094q-.14.056-.278.117-.127.061-.252.125-.12.061-.239.124-.124.064-.246.131l-.264.155a3 3 0 0 1-.245.131q-.13.073-.256.151a2 2 0 0 1-.252.12c-.1.036-.202.066-.304.1-.321.102-.176.556.145.454m-2.915.031a1.7 1.7 0 0 0 .342.148c.113.034.231.044.348.05q.15.003.3-.016.147-.02.296-.029.154-.01.307-.032c.089-.014.178-.018.267-.025q.136-.015.272-.024.11-.006.22-.007.097 0 .193.006.069.004.136.016c.012-.001.064.022.016.002-.064-.055.006.04.015.06q.034.084.057.173c.01.044.02.088.02.134a1 1 0 0 1-.015.162q-.011.076-.041.148c-.022.045-.041.092-.07.133q-.043.062-.095.116-.053.039-.11.069a.5.5 0 0 1-.132.054l-.228.058a3 3 0 0 1-.219.054 1.4 1.4 0 0 1-.192.025q-.107.01-.213.024l-.225.036q-.111.021-.223.032l-.24.018q-.117.011-.233.027c-.076.009-.151.023-.227.034q-.083.013-.165.028-.053.009-.105.025c-.325.088-.201.548.125.46q.031-.01.064-.015.075-.015.152-.026.109-.018.218-.033.105-.014.212-.025l.25-.019q.127-.013.252-.036.105-.02.211-.034.089-.012.179-.021a2 2 0 0 0 .25-.032q.126-.025.249-.06l.235-.06a1 1 0 0 0 .239-.098 1 1 0 0 0 .217-.15q.085-.089.154-.19.066-.104.114-.217a1.2 1.2 0 0 0 .069-.249q.021-.125.021-.252a1 1 0 0 0-.036-.243 2 2 0 0 0-.09-.259.7.7 0 0 0-.2-.26.6.6 0 0 0-.19-.064 2 2 0 0 0-.185-.02c-.073-.003-.146-.008-.219-.006a5 5 0 0 0-.524.032c-.097.008-.195.013-.291.028a4 4 0 0 1-.279.029 5 5 0 0 0-.32.031 1.5 1.5 0 0 1-.221.013 1 1 0 0 1-.228-.029 1.2 1.2 0 0 1-.257-.113c-.297-.159-.522.261-.225.42m4.463 4.161q.087.148.189.287c.083.105.153.218.226.33q.121.188.255.366.08.111.179.206l.163.145q.074.064.145.133.096.084.193.165.076.068.157.13.06.064.129.123c.255.22.566-.141.311-.361-.052-.043-.095-.094-.146-.137a2 2 0 0 1-.14-.116l-.175-.149q-.074-.072-.153-.14l-.154-.138a1 1 0 0 1-.124-.144 7 7 0 0 1-.239-.342c-.077-.119-.152-.239-.24-.35a3 3 0 0 1-.163-.247c-.169-.291-.581-.052-.412.24m-4.244-4.494a3 3 0 0 0-.33-.054.9.9 0 0 0-.338.024 2 2 0 0 0-.289.118 1 1 0 0 0-.254.183q-.082.086-.157.178a.7.7 0 0 0-.141.282c-.025.127-.026.257-.027.386-.001.133.02.264.042.394q.038.195.092.385.05.165.115.325.064.15.147.29c.055.094.126.178.199.259q.129.134.27.258.149.128.291.262.125.122.258.237.098.088.186.187l.184.209q.093.106.197.201l.198.183q.09.087.185.167.1.087.213.157c.085.053.177.09.27.125.105.036.214.059.321.086q.185.049.375.065c.112.01.224.004.336-.001a8 8 0 0 1 .289-.006c.082-.001.163.007.245.011q.145.007.291.001c.093-.005.184-.025.275-.042q.169-.028.335-.074a2 2 0 0 0 .316-.105 1.6 1.6 0 0 0 .289-.175l.223-.179.175-.149q.089-.073.169-.157.086-.089.17-.18c.073-.075.134-.161.195-.245l.155-.208c.2-.271-.185-.554-.384-.282l-.158.211c-.05.07-.099.141-.16.203q-.079.086-.161.169a1.4 1.4 0 0 1-.135.126l-.163.139q-.106.083-.21.169a1 1 0 0 1-.194.121 1.6 1.6 0 0 1-.253.083q-.146.04-.296.065c-.069.013-.138.028-.209.035q-.12.004-.242-.001c-.092-.005-.184-.014-.277-.012q-.154 0-.307.007c-.09.004-.181.01-.272.002a1.7 1.7 0 0 1-.302-.053c-.09-.023-.181-.042-.27-.07a1 1 0 0 1-.184-.082 1 1 0 0 1-.158-.117 3 3 0 0 1-.169-.153l-.198-.183a2 2 0 0 1-.164-.167l-.189-.215a3 3 0 0 0-.226-.225 5 5 0 0 1-.245-.225q-.147-.137-.298-.268a4 4 0 0 1-.234-.222 1 1 0 0 1-.143-.183 2 2 0 0 1-.115-.225q-.055-.136-.099-.276a4 4 0 0 1-.082-.338 1.8 1.8 0 0 1-.023-.579.2.2 0 0 1 .051-.102q.055-.067.115-.132a.6.6 0 0 1 .132-.099q.1-.047.203-.086a.4.4 0 0 1 .165-.01q.143.014.282.046c.33.069.427-.397.098-.466zm.2.129a3 3 0 0 1-.082-.36 18 18 0 0 0-.103-.562 12 12 0 0 1-.099-.529c-.024-.157-.039-.316-.055-.474a6 6 0 0 1-.032-.412 3 3 0 0 1 .001-.302c.009-.085.03-.168.051-.251a1 1 0 0 1 .087-.225c.03-.063.086-.104.14-.145.087-.056.179-.105.268-.158q.126-.074.257-.134a2 2 0 0 1 .246-.093c.075-.024.152-.034.23-.043l.359-.031a5 5 0 0 0 .483-.065c.144-.027.286-.065.43-.091.141-.02.283-.027.425-.034l.364-.017c.071 0 .14.02.206.044a.4.4 0 0 1 .146.095q.083.078.159.165.07.08.134.167.068.089.144.171c.055.059.12.107.181.16q.073.072.139.152c.01.009.073.086.046.057.146.304.575.096.429-.207a.7.7 0 0 0-.114-.161c-.06-.069-.118-.139-.186-.2-.048-.042-.099-.081-.145-.125a2 2 0 0 1-.117-.139q-.075-.1-.157-.195a3 3 0 0 0-.196-.202.9.9 0 0 0-.307-.189 1.1 1.1 0 0 0-.382-.069l-.369.017c-.162.009-.324.017-.484.041-.145.027-.288.063-.432.092q-.216.041-.436.058l-.372.032a1.7 1.7 0 0 0-.327.064 3 3 0 0 0-.301.115 4 4 0 0 0-.297.156c-.105.063-.214.119-.314.189a.9.9 0 0 0-.275.309 1.4 1.4 0 0 0-.124.322 2 2 0 0 0-.064.337 3 3 0 0 0-.001.352q.009.221.034.442c.017.168.033.336.059.502q.045.273.101.545.055.276.101.554c.024.13.049.259.087.385.078.328.541.217.464-.11m-4.25-1.332a1.6 1.6 0 0 1 .015-.314q.03-.148.086-.289.047-.12.119-.227a.9.9 0 0 1 .286-.257c.07-.042.146-.072.222-.101a1.2 1.2 0 0 1 .241-.069q.143-.023.285-.05.175-.032.349-.074.179-.043.357-.082.14-.03.282-.044c.107-.007.212-.025.319-.038q.12-.011.24-.015c.043.002.094-.007.133.001.013.004.013.011.024.022q.064.066.132.128l.115.109c.038.039.084.069.129.099.283.182.541-.219.258-.401q-.03-.015-.053-.038-.062-.06-.125-.118-.068-.062-.132-.128a.53.53 0 0 0-.262-.142 1 1 0 0 0-.238-.009q-.14.005-.28.018c-.103.013-.206.029-.31.037q-.168.017-.333.052-.184.04-.367.084a5 5 0 0 1-.329.07q-.144.027-.288.051a1.7 1.7 0 0 0-.322.093c-.101.04-.202.081-.295.138a1.3 1.3 0 0 0-.441.408 1.7 1.7 0 0 0-.162.314 2 2 0 0 0-.114.395 2 2 0 0 0-.019.39c.008.337.484.326.476-.011zm-3.226 6.9.052-.282q.036-.176.059-.353.025-.188.029-.377c.003-.133-.01-.265-.022-.398-.01-.121-.018-.243-.035-.363a2 2 0 0 0-.09-.354q-.048-.133-.1-.265-.043-.115-.09-.229l-.092-.239c-.013-.042-.014-.086-.016-.129v-.196q.01-.114.017-.228.005-.11.004-.22c.001-.067-.002-.135.002-.202q.008-.101.029-.201.023-.115.04-.231.014-.115.025-.231.011-.114.014-.228.002-.108.002-.217a1.5 1.5 0 0 1 .177-.581.6.6 0 0 1 .134-.181 1.7 1.7 0 0 1 .554-.22q.21-.054.423-.1a4 4 0 0 0 .361-.097c.124-.035.245-.079.366-.123q.128-.045.254-.094.08-.028.164-.046a2 2 0 0 0 .215-.062 1 1 0 0 1 .162-.045q.051-.007.102-.001.03.012.058.032.058.043.104.1c.053.064.097.134.141.205q.077.134.145.274a11 11 0 0 1 .158.35c.052.13.108.259.158.39l.142.399q.074.207.144.415l.129.373.13.404c.037.108.061.219.086.33q.038.159.074.319.033.16.055.323.022.162.053.322l.05.293q.028.168.07.333.028.118.05.238c.011.067.027.134.035.202l.013.161q.002.081.009.162l.019.162q.006.097.021.193a.7.7 0 0 0 .085.214q.047.088.102.171.071.115.161.217c.048.054.102.1.153.151q.075.077.155.147l.139.124q.076.066.157.125.091.067.195.116a1.4 1.4 0 0 0 .455.128q.104.01.209.014.11.007.221.017.116.009.233.01a1 1 0 0 0 .248-.028 3 3 0 0 0 .236-.075q.132-.05.262-.106a.7.7 0 0 0 .197-.129q.076-.071.136-.156c.042-.065.072-.138.099-.21q.037-.098.071-.197.036-.111.05-.226l.013-.197q.008-.086.021-.17.02-.088.037-.177c.015-.076.021-.154.035-.23a2 2 0 0 0 .03-.225q.004-.073.004-.145a1 1 0 0 0-.005-.127c-.037-.335-.51-.282-.474.052l.002.073-.002.113q-.006.089-.024.176c-.013.075-.021.15-.034.224-.012.065-.029.129-.04.195q-.015.102-.025.203-.007.089-.012.179a1 1 0 0 1-.029.131q-.031.09-.064.179a1 1 0 0 1-.047.109c-.015.029-.044.049-.064.074a.2.2 0 0 1-.067.045q-.115.05-.232.094a2 2 0 0 1-.19.061.5.5 0 0 1-.127.014 3 3 0 0 1-.202-.009q-.114-.01-.229-.017-.094-.005-.187-.013c-.046-.005-.092-.01-.137-.025a1 1 0 0 1-.159-.056.7.7 0 0 1-.123-.072 3 3 0 0 1-.123-.098l-.139-.124a2 2 0 0 1-.135-.128l-.135-.131a1 1 0 0 1-.115-.158 2 2 0 0 1-.088-.147c-.013-.024-.028-.047-.033-.074-.014-.05-.005-.105-.015-.155l-.017-.15q-.006-.076-.008-.152l-.015-.19q-.017-.116-.04-.231a6 6 0 0 0-.055-.262 4 4 0 0 1-.064-.301l-.051-.298a5 5 0 0 1-.049-.3 5 5 0 0 0-.061-.357q-.036-.162-.074-.323c-.028-.125-.056-.25-.097-.371l-.131-.409-.129-.373q-.071-.212-.147-.423-.072-.206-.146-.41c-.052-.136-.11-.27-.164-.406q-.08-.188-.169-.375a4 4 0 0 0-.168-.315 2.4 2.4 0 0 0-.185-.265 1 1 0 0 0-.225-.2.64.64 0 0 0-.259-.095 1 1 0 0 0-.222.007q-.121.022-.236.063a1.4 1.4 0 0 1-.169.049 2 2 0 0 0-.22.063c-.084.031-.166.065-.251.093q-.169.064-.34.115a4 4 0 0 1-.329.088q-.218.048-.434.103a3 3 0 0 0-.408.131c-.124.056-.25.115-.356.203a1.1 1.1 0 0 0-.232.311 2 2 0 0 0-.23.791q0 .107-.002.213a2 2 0 0 1-.011.195l-.022.21q-.015.105-.036.207a2 2 0 0 0-.039.49q0 .099-.004.197l-.017.234a4 4 0 0 0 0 .233 1 1 0 0 0 .044.275q.048.128.099.255.045.109.086.219l.093.245c.029.087.056.176.07.268.016.113.022.228.032.342s.022.23.021.345q-.003.163-.025.325a4 4 0 0 1-.055.33l-.054.295c-.052.333.419.406.471.073zm-.204-3.504c.083.141.156.288.229.435a7 7 0 0 1 .267.61q.106.313.222.622l.192.507q.096.238.175.483.073.242.16.479c.042.119.089.236.131.355q.044.149.112.289a1 1 0 0 0 .196.254q.109.102.234.181c.105.065.22.107.337.141.103.027.208.046.313.066l.276.058.254.046q.128.021.258.029.13.014.261.007a1.2 1.2 0 0 0 .262-.058 1.4 1.4 0 0 0 .284-.108c.083-.047.168-.091.249-.142a1.2 1.2 0 0 0 .264-.257q.086-.113.151-.239c.032-.061.056-.126.086-.189.022-.042.039-.087.061-.129q.04-.069.083-.136.044-.075.081-.155c.148-.303-.281-.511-.428-.208q-.027.059-.06.115c-.033.054-.069.106-.098.163q-.035.071-.068.143c-.028.057-.051.116-.079.173a1 1 0 0 1-.105.168.7.7 0 0 1-.14.147c-.069.043-.142.08-.212.121a1 1 0 0 1-.205.077c-.052.015-.104.032-.158.039-.065.006-.13-.003-.194-.007a2 2 0 0 1-.208-.022l-.247-.045c-.094-.018-.188-.041-.282-.059q-.135-.022-.269-.055a.8.8 0 0 1-.213-.086 1 1 0 0 1-.161-.124.5.5 0 0 1-.1-.125c-.039-.074-.061-.154-.088-.232-.043-.12-.09-.238-.133-.358a8 8 0 0 1-.155-.463 8 8 0 0 0-.184-.507l-.19-.503a18 18 0 0 1-.223-.622 8 8 0 0 0-.285-.652 7 7 0 0 0-.254-.48c-.181-.284-.583-.029-.402.255"/></svg>