<svg width="3.3cm" height="3.3cm" viewBox="0 0 33 33" xml:space="preserve" xmlns="http://www.w3.org/2000/svg"><g style="display:inline"/><path style="fill:#ea580c;stroke-width:.264583" d="M11.062 8.15a1.2 1.2 0 0 0-.568-.167c-2.888-.013-1.97-.158-3.222.065-.584.133-1.054.403-1.527.757-.038.033-.423.362-.446.386-.14.14-.224.276-.338.435-.235.328-.083.104-.303.437-.059.079-.127.151-.176.236-.097.168-.122.32-.165.505q-.09.39-.161.78c-.115.507-.096.996-.05 1.507.037.55.234 1.061.457 1.558.246.496.553.935.939 1.33.343.343.741.612 1.177.82.272.106.602.229.897.231 3.918.033 2.707.21 4.268-.036a6 6 0 0 0 1.455-.527c.28-.149.552-.321.788-.534.163-.146.21-.21.356-.378.222-.27.44-.553.586-.874.072-.158.114-.308.166-.473.144-.45.157-.911.129-1.377-.033-.465-.19-.906-.36-1.336a6.3 6.3 0 0 0-.678-1.2c-.226-.316-.514-.573-.804-.828a27 27 0 0 0-.787-.65c-.183-.14-.362-.285-.556-.41a3 3 0 0 0-.521-.242c-1.383-.419-2.922-.4-4.327-.072-.108.036-.218.067-.324.107-.089.05-.185.082-.264.146-.014.016-.061.038-.042.047.417.186 1.287.27 1.598.32l.564.028c2.136.007.506-.027 1.78.044.014 0 .027-.005.04-.007.086-.018.166-.06.254-.067.1-.018.198-.044.301-.029 1.33.134.165.015-3.774-.004-.022 0 .045-.006.067-.008.075-.003.151.005.226.013.18.024.352.077.52.144.21.094.403.215.589.351.28.195.55.406.815.621.284.235.561.481.815.75.28.33.51.697.68 1.097.17.387.314.786.356 1.21.03.415.004.83-.118 1.23a3 3 0 0 1-.72 1.176 4.2 4.2 0 0 1-1.146.771c-.458.195-.929.369-1.43.402-1.428.056-.294.008 3.273.023.077 0-.155.004-.233 0a2.6 2.6 0 0 1-.637-.111c-.172-.059-.247-.078-.41-.158a4 4 0 0 1-.774-.515c-.38-.343-.712-.732-.944-1.192-.223-.45-.393-.92-.435-1.425-.043-.468-.049-.938.037-1.402.05-.253.1-.505.166-.754.04-.155.096-.305.109-.466.005-.07-.004-.142-.006-.213.042-.153.063-.255.134-.4.058-.117.175-.283.243-.395.17-.283.024-.097.248-.347.132-.122.185-.18.335-.281.274-.183.588-.282.906-.354 1.024-.171.224-.024-2.202-.058a3 3 0 0 1 .263-.008c.218-.001.284.007.493.029l.176.02z"/><path style="fill:#ea580c;stroke-width:.264583" d="M9.067 22.148c.183-.053.36-.126.544-.178.092-.026.187-.042.278-.07.095-.027.33-.117.425-.153.348-.157.71-.285 1.035-.487.291-.173.576-.356.867-.53l.122-.095c.046-.034.094-.063.139-.098.124-.1.222-.23.344-.333q.073-.058.15-.113a3.6 3.6 0 0 0 .815-.644c.25-.226.464-.484.669-.75.212-.3.421-.603.595-.928.16-.296.275-.612.375-.932.092-.316.16-.638.245-.955a7 7 0 0 0 .157-.758c.04-.2.043-.398.027-.6a3 3 0 0 0-.133-.634c-.057-.196-.139-.384-.22-.57q-.103-.227-.214-.449a6 6 0 0 0-.283-.455c-.09-.136-.192-.266-.282-.403a16 16 0 0 0-.281-.44 3 3 0 0 0-.308-.38 10 10 0 0 0-.383-.365c-.374-.325-.252-.102-1.209-.028l-.634.05-.662.09-.566.065c-1.398.164-1.24-.026-.854.193.144.08.265.191.387.3q.158.155.301.323c.106.13.195.27.281.414.09.146.178.292.287.425.098.13.192.263.265.41q.123.206.231.421c.085.168.164.339.222.518.06.177.116.356.131.543.01.173-.002.347-.02.52a7 7 0 0 1-.126.72q-.094.466-.23.922a6 6 0 0 1-.37.86 6.4 6.4 0 0 1-.59.875 8 8 0 0 1-.553.706c-.198.2-.406.399-.53.656q-.043.062-.091.119c-.106.116-.238.204-.35.312-.031.03-.058.066-.089.097l-.1.088a3 3 0 0 1-.637.517c-.047.03-.097.057-.142.089-.177.128-.321.299-.504.42-.022.02-.175.15-.192.176-.02.027-.019.067-.038.095-.056.08-.153.135-.213.212zM21.77 7.714a4 4 0 0 0-.841.14c-.063.02-.386.137-.44.156a4 4 0 0 0-.848.447c-.042.03-.349.274-.385.303-.291.303-.629.57-.883.906-.046.06-.084.126-.125.19-.227.382-.367.8-.489 1.226-.136.465-.252.938-.322 1.418-.053.4-.104.803-.113 1.207-.012.378.027.756.065 1.132.045.322.142.63.26.932.106.262.257.5.416.73.14.197.316.357.516.49.205.127.428.218.659.287.175.036.355.093.535.093 3.955.006 2.684.221 4.138-.035.324-.063.633-.182.937-.307a6 6 0 0 0 .944-.544c.295-.2.551-.444.795-.701.26-.272.437-.6.59-.94.168-.371.257-.765.329-1.164.069-.407.098-.82.113-1.232a5.5 5.5 0 0 0-.137-1.197c-.09-.393-.267-.755-.45-1.112-.153-.313-.37-.585-.595-.849a4 4 0 0 0-.629-.589 3.3 3.3 0 0 0-.62-.343 3 3 0 0 0-.48-.133c-.134-.03-.27-.04-.404-.066a2 2 0 0 0-.294-.04q-.134.01-.269.003c-.1-.01-.196-.04-.295-.06-1.335-.293-.181-.044-4.01 0-.019 0-.065.032-.046.036.49.099.985.169 1.477.253l.889.089c.521.065 1.043.127 1.564.196.014.002.051.018.038.018-4.004.023-5.15.212-3.832-.003a.8.8 0 0 1 .292.025c.09.026.18.051.274.057.1-.003.199-.009.298-.004.14.009.277.038.416.048q.248.031.492.077c.222.046.434.118.63.235.236.132.454.29.638.49.23.23.447.474.615.753.187.317.35.65.447 1.007.083.36.15.727.138 1.099a7 7 0 0 1-.106 1.169c-.075.364-.165.729-.335 1.062-.16.3-.347.58-.597.813-.24.23-.496.443-.777.62a4.8 4.8 0 0 1-.951.46c-.303.104-.612.19-.934.204-1.392.032.12-.004 3.555.006.044 0-.09.007-.134.008a2 2 0 0 1-.255-.013q-.064-.005-.128-.013a2.4 2.4 0 0 1-.63-.178c-.187-.085-.368-.181-.512-.334a2.84 2.84 0 0 1-.697-1.46 4.2 4.2 0 0 1-.083-1.061c.019-.388.021-.778.079-1.163.073-.46.159-.917.313-1.358.14-.391.292-.78.504-1.139.18-.345.284-.734.546-1.033.234-.311.477-.489.819-.67q.075-.042.15-.08c.132-.06.262-.102.383-.182.025-.016.054-.028.074-.05.013-.014.013-.035.019-.052z"/><path style="fill:#ea580c;stroke-width:.264583" d="M23.468 11.377c-.085.184-.243.33-.31.524-.08.233-.022.568-.007.813.056.569.064 1.14.092 1.71.024.503.05 1.007.04 1.511a7 7 0 0 1-.128 1.167 6.5 6.5 0 0 1-.323 1.193c-.142.423-.33.828-.541 1.22a4.7 4.7 0 0 1-.65.898 5.5 5.5 0 0 1-.785.704c-.324.248-.68.447-1.046.626-.356.16-.727.283-1.1.395-.064.02-.239.01-.192.057.094.094.249.096.377.13.265.071.535.124.802.186l.59.08c.38.023 1.55.117 2.047.092.067-.003.128-.04.192-.06.378-.128.753-.265 1.101-.463a7.3 7.3 0 0 0 1.067-.698c.29-.241.577-.49.816-.785.23-.309.437-.635.61-.98q.307-.622.541-1.273c.142-.412.272-.828.347-1.258.064-.408.124-.819.098-1.233-.016-.51-.031-1.019-.071-1.527-.026-.571-.074-1.14-.096-1.712l-.013-.277c-.003-.09.006-.18-.006-.27a1 1 0 0 0-.06-.253c-.076-.185-.234-.328-.312-.512z"/><path style="fill:#ea580c;stroke-width:.264583" d="M21.545 9.127c-.272.06-.05.002-.328.103-.282.101-.32.06-.507.269-.084.095-.199.317-.258.422-.278.61-.414 1.266-.549 1.919-.15.647-.177 1.307-.19 1.968a7 7 0 0 0 .163 1.654c.096.36.247.702.402 1.04.04.081.196.428.294.428 1.325.007 2.65-.028 3.973-.041a6 6 0 0 0 .519-.57c-.157-.288-.183-.521-.51-.7-.235-.129-.497-.2-.746-.301l-.682-.009c-.272.079-.547.145-.814.236-.584.197-.312.153-.787.363-.108.048-.222.082-.332.123-.115.106-.31.313-.48.32-.025.002-.049-.008-.073-.012 1.277-.006 2.554-.032 3.83-.018.029 0-.039.04-.06.06-.066.06-.103.068-.172 0q-.035-.036-.066-.078a4 4 0 0 1-.47-.938 5.2 5.2 0 0 1-.229-1.553 10 10 0 0 1 .165-1.896c.127-.615.276-1.242.622-1.775.047-.06.09-.125.14-.183.012-.013.242-.232.248-.255.008-.03-.055-.05-.047-.08.01-.043.099-.025.118-.065zM7.843 8.946c-.061.023-.125.04-.184.071-.05.026-.092.064-.14.095q-.087.056-.177.11c-.166.102-.253.13-.369.29-.041.059-.063.13-.095.194-.225.462-.381.954-.52 1.448-.109.431-.114.89-.018 1.325.021.095.053.188.079.282.17.534.412 1.04.662 1.54.161.308.354.595.606.835.182.153.395.264.607.368.142.071.29.125.438.18 1.278.583 3.447 1.258 4.259.037.14-.279.173-.587.2-.893.025-.436-.05-.87-.125-1.298a10 10 0 0 0-.373-1.265 7 7 0 0 0-.394-.91c-.1-.192-.219-.374-.332-.56-.087-.14-.195-.266-.29-.402-.308-.474-.078-.16-1.291-.147l-1.636.105c-1.331.156-1.29-.152-.987.276.091.139.164.29.278.413.135.162.247.341.365.516.171.271.324.555.448.85.15.39.297.784.376 1.197.08.387.142.781.093 1.178-.015.09-.073.497-.214.502-.018 0-.032-.016-.048-.024-.912-.996-.07-.055 3.82-.018.018 0-.036.007-.053.007-.062.001-.122-.02-.18-.04q-.227-.086-.458-.161a5 5 0 0 1-.617-.27c-.282-.165-.5-.4-.681-.672a6.6 6.6 0 0 1-.682-1.444c-.127-.483-.18-.914-.047-1.405.128-.473.3-.933.545-1.359.074-.122.156-.21.144-.361-.005-.054-.039-.1-.058-.15l-.053-.135c-.064-.167-.004-.085-.159-.21z"/><path style="fill:#ea580c;stroke-width:.264583" d="M7.99 13.973c-.006.033-.023.066-.019.1.016.118.096.199.154.296.03.052.055.108.085.16.029.051.068.097.092.15.02.043.025.09.038.136.024.06.055.147.09.204.048.077.102.122.068.216-.018.008-.03.114-.041.113q-.014-.002-.028-.01c-.084-.06.14.127.147.133.023.036.05.082.087.103.211.124.516.054.734.037l1.197-.144-.079-.012c.523-.077.25-.032.82-.135.091-.015.182-.033.273-.044a.4.4 0 0 1 .103 0q.03.007.058.025c.005.002.012.017.007.014-.019-.015-.025-.045-.048-.056a.7.7 0 0 0-.324-.326c-.026-.007-.05-.018-.077-.021-.09-.01-.177.09-.272.055-.09-.007-.185-.01-.266-.057-.106-.062-.206-.18-.313-.239-.056-.04-.116-.076-.168-.122-.048-.043-.086-.095-.13-.143-.046-.051-.096-.1-.14-.154-.138-.165-.21-.299-.42-.39Zm2.293-5.365c.148.005.291.037.43.085a.7.7 0 0 1 .233.164.7.7 0 0 1 .152.186q.099.14.182.291c.07.127.117.265.173.397.014.032.018.068.041.093.033.036.08.055.119.082l.27.07.136-.005.215-.087c.018-.03.05-.056.053-.09s-.023-.063-.036-.094a6 6 0 0 0-.19-.41 1.5 1.5 0 0 0-.268-.301c-.081-.06-.164-.116-.237-.184a1.4 1.4 0 0 0-.288-.18 2 2 0 0 0-.492-.093Z"/><path style="fill:#ea580c;stroke-width:.264583" d="M11.093 8.442c.13.077.244.178.362.272.104.086.198.182.29.28.095.111.178.234.257.357.096.182.245.24.424.329l.163-.008c.137-.167.162-.164.05-.358a1.5 1.5 0 0 0-.336-.364 3 3 0 0 0-.352-.282c-.144-.1-.303-.174-.451-.268Zm9.802.063a8 8 0 0 1-.616.177c-.133.032-.267.058-.394.108-.146.074-.255.203-.367.32-.095.102-.187.206-.285.306-.185.183-.234.082.429.06a.7.7 0 0 1 .155-.351 1.5 1.5 0 0 1 .26-.256.7.7 0 0 1 .205-.109 2 2 0 0 0 .202-.067q.104-.047.218-.076c.004-.001.03-.005.03-.016.021-.271-.454-.104-.629-.006a5 5 0 0 0-.337.205q-.126.088-.248.181l-.15.134c-.151.158-.225.105.49.036.018-.002.017-.031.026-.047l.043-.063q.148-.205.334-.377c.081-.07.161-.144.26-.188.199-.068.572-.01-.449-.036-.103.09-.21.174-.329.24a3 3 0 0 0-.274.151 1.4 1.4 0 0 0-.214.166c-.024.012-.043.05-.058.061.189.008.378.028.567.023.015 0 .017-.025.027-.037a4 4 0 0 1 .202-.223q.159-.174.344-.321a.7.7 0 0 1 .179-.103c.003 0 .01.002.01-.002.028-.22-.502-.096-.696-.028a1.2 1.2 0 0 0-.337.213c-.078.073-.156.145-.226.226-.025.048-.125.096-.116.156.172.008.343.028.515.023.023 0 .304-.252.338-.281.101-.077.19-.171.302-.233.007-.005.017-.007.023-.014.006-.008.017-.025.008-.026-.41-.04-.442-.086-.692.045a2 2 0 0 0-.41.278 1.7 1.7 0 0 0-.208.238c-.124.133.004.104.13.135l.108.004c.147-.01.22.025.301-.104.062-.079.12-.16.196-.228a2 2 0 0 1 .383-.267c.046-.021.065-.032.112-.047.015-.004.06-.01.045-.011-.484-.063-.445-.093-.458-.043-.058.1-.174.156-.252.237a4 4 0 0 1-.252.186l-.07.048c-.019.011-.08.027-.059.032.144.034.293.039.44.058.068-.024.105-.098.155-.146.073-.074.143-.151.222-.219.1-.08.205-.154.328-.194.21-.066.352-.006-.367-.033-.007 0 .052-.04.017-.057-.045.042-.099.075-.147.114-.122.103-.235.217-.351.327-.072.073-.14.154-.22.219-.014.011-.064.028-.046.032.166.038.338.049.506.073.02-.023.05-.04.07-.064a2 2 0 0 1 .2-.157c.086-.054.177-.099.264-.152.113-.077.226-.157.317-.26-.401-.076-.366-.16-.573-.053-.092.057-.173.13-.255.202a2.6 2.6 0 0 0-.343.386l-.051.067c-.013.017-.056.049-.035.054.47.126.383.168.553.028.048-.043.093-.09.144-.13.077-.061.152-.125.233-.178q.165-.109.338-.2c.22-.107.187.028-.398-.05-.05-.007.04-.077-.017-.047-.063.034-.132.054-.199.08l-.202.067a.7.7 0 0 0-.214.124 1.7 1.7 0 0 0-.257.27c-.081.118-.168.239-.18.387.441.058.437.173.638-.024.094-.101.183-.207.28-.307.106-.11.213-.229.354-.296.12-.043.244-.074.367-.107q.29-.084.574-.184zm1.602.466c.206-.05.415-.081.625-.109q.23-.028.46-.031c-.902.005-.397-.03-.198.042.034.012.082.014.091.051-.046-.295-.036-.064.649-.087.017 0-.035-.006-.052-.01l-.194-.038c-.105-.014-.206-.037-.283-.113-.04-.04-.056-.094-.083-.142-.032-.072 0 .026-.014.028-.218.025-.438.01-.657.015.087.03.172.16.252.188.034.012.07.014.105.02l.28.001.044-.002.252-.048c.014-.011.04-.016.042-.034.002-.02-.234-.19-.267-.205-.221-.01-.843-.267-.758.066.02.062.063.113.099.166a.42.42 0 0 0 .277.159c.35.065.566.097.992.05.027-.002.004-.054.006-.081-.057-.04-.147-.028-.21-.06-.3-.06-.58-.08-.897-.047a6 6 0 0 0-.432.041q-.3.048-.595.117Zm3.947 1.649c.04.206.066.414.095.622q.059.205.101.413.032.138.068.273c.061.102.236.082.342.083l.076.012c.104-.001.122-.01.213-.036.067-.02.117-.008.11-.083-.037-.09-.064-.182-.102-.272-.064-.134-.131-.267-.176-.409a8 8 0 0 1-.26-.615z"/><path style="fill:#ea580c;stroke-width:.264583" d="M26.625 10.945c.045.137.093.274.125.415.019.092.04.183.05.276.013.079.036.154.052.232.02.093.026.188.039.283q.008.14.025.277c0 .074.009.149.01.223q.011.118.018.236c.004.088.016.176.014.264.001.097.004.193 0 .29l-.001.301c.001.101-.008.202-.012.303q-.01.165-.025.33-.012.145-.017.29a7 7 0 0 1-.02.308l-.035.323c-.01.122-.026.244-.038.367q-.014.187-.032.376a4 4 0 0 1-.053.307c-.02.1-.046.199-.067.298-.014.096-.044.188-.072.28q-.06.209-.142.41c-.051.135-.118.263-.177.395a2 2 0 0 0-.134.273 4 4 0 0 0-.12.248c-.034.096-.095.18-.138.271q-.058.095-.119.188l-.12.208-.11.2c-.044.067-.083.137-.127.203q-.044.072-.096.138a1.3 1.3 0 0 1-.136.193q-.056.086-.125.16-.113.106-.231.207c-.116.097-.22.205-.325.313a8 8 0 0 1-.262.257c-.022.02-.05.035-.067.06-.01.018-.006.04-.01.06l.184.12.185.017.402-.071c.04-.018.08-.03.117-.053.026-.016.045-.04.068-.062.09-.084.175-.173.264-.259.11-.106.226-.205.34-.306.078-.072.161-.139.232-.217.046-.054.087-.113.132-.169q.064-.1.138-.194c.03-.049.067-.092.095-.142q.065-.101.119-.208l.114-.2q.059-.105.124-.206c.034-.065.08-.125.11-.192.055-.088.093-.186.144-.277l.123-.247q.069-.135.13-.272a4 4 0 0 0 .18-.402q.082-.207.15-.418c.03-.094.052-.19.078-.286.023-.099.039-.2.061-.298.023-.106.047-.21.053-.318l.03-.376q.019-.184.04-.366c.013-.109.02-.217.032-.326.01-.103.012-.207.015-.31l.01-.289.015-.332q.008-.153.008-.307l-.002-.301c-.003-.098 0-.196-.005-.293-.01-.092-.01-.184-.034-.273-.018-.077-.041-.154-.053-.232-.014-.075-.012-.152-.032-.226a4 4 0 0 0-.055-.277c-.016-.099-.031-.198-.06-.293-.027-.077-.06-.152-.084-.23-.04-.09-.081-.18-.108-.275a1.3 1.3 0 0 0-.221-.425z"/></svg>