<svg width="3.3cm" height="3.3cm" viewBox="0 0 33 33" xml:space="preserve" xmlns="http://www.w3.org/2000/svg"><g style="display:inline"/><g style="display:inline"><path style="fill:#008000;stroke-width:.264583" d="M6.049 18.952c.13.04.254.106.383.15q.061.02.122.034l.12.044c.186.128.403.204.587.33.158.142.342.249.483.408.092.107.155.237.242.347.251.32-.052-.124.191.245.03.042.066.08.092.125s.038.096.058.143c.084.194.126.335.156.544.043.226.157.428.231.643.119.343-.027.011.133.35.219.402.449.8.678 1.197q.39.665.777 1.33c.228.37.419.762.608 1.153.119.25.231.503.31.77a1 1 0 0 1 .03.21c.027 1.396.05.411 3.876.764.021.002.104-.345.124-.428.056-.237.155-.461.256-.682.197-.441.433-.862.679-1.277.409-.663.785-1.346 1.143-2.038.426-.82.745-1.69 1.086-2.547.332-.851.762-1.657 1.208-2.453.529-.926 1.121-1.814 1.726-2.692.6-.854 1.256-1.667 1.922-2.47.545-.65 1.087-1.302 1.653-1.932a15.5 15.5 0 0 1 1.602-1.536 27 27 0 0 1 1.901-1.41c.481-.331.979-.635 1.473-.945q.26-.165.514-.34l.132-.092c.033-.023.07-.041.1-.07.024-.023.038-.056.057-.084-.007-.055 0-.113-.022-.164-.063-.15-.158-.284-.23-.43-.024-.05-.035-.105-.06-.155-.414-.855.348.898-.37-.807.255-.376-.276-.735-.53-.36-.085-.187-.154-.381-.254-.56-.111-.198-.169-.17-.3-.308-.412-.429-.163-.285-.478-.437-.036.01-.075.014-.108.03-.037.018-.067.047-.1.07q-.232.166-.473.318c-.54.338-1.083.671-1.608 1.032a30 30 0 0 0-2.226 1.659 20 20 0 0 0-1.995 1.917c-.602.67-1.18 1.361-1.757 2.053-.742.895-1.47 1.802-2.138 2.754-.674.98-1.333 1.972-1.92 3.006-.532.95-1.04 1.915-1.436 2.931-.292.735-.562 1.481-.922 2.187q-.481.939-1.033 1.839a17 17 0 0 0-.885 1.674c-.199.447-.382.901-.494 1.378-.046.194.02-.097.04-.094 3.724.542 3.91 2.016 3.837.426a5.2 5.2 0 0 0-.2-1.12 9.5 9.5 0 0 0-.53-1.326 17 17 0 0 0-.756-1.434l-.765-1.307c-.215-.373-.43-.746-.636-1.124-.196-.318-.04-.085-.277-.388-.205-.263-.397-.537-.638-.771-.275-.231-.536-.482-.83-.689-.07-.048-.146-.088-.216-.136q-.09-.064-.18-.133c-.785-.483.407.26-.357-.246a3.7 3.7 0 0 0-.631-.323c-.301-.117-.558-.325-.867-.426-.351-.142-.7-.289-1.082-.333-.122-.025-.242-.058-.365-.078a3 3 0 0 0-.586-.02c-1.487-.195-1.763 1.909-.275 2.104"/></g></svg>