<?xml version="1.0" encoding="UTF-8" standalone="no"?>
<!-- Created with Inkscape (http://www.inkscape.org/) -->

<svg
   width="81.495804mm"
   height="66.166183mm"
   viewBox="0 0 81.495803 66.166184"
   version="1.1"
   id="svg5"
   xml:space="preserve"
   inkscape:version="1.2.2 (b0a8486541, 2022-12-01)"
   sodipodi:docname="logo.svg"
   xmlns:inkscape="http://www.inkscape.org/namespaces/inkscape"
   xmlns:sodipodi="http://sodipodi.sourceforge.net/DTD/sodipodi-0.dtd"
   xmlns="http://www.w3.org/2000/svg"
   xmlns:svg="http://www.w3.org/2000/svg"
   xmlns:rdf="http://www.w3.org/1999/02/22-rdf-syntax-ns#"
   xmlns:cc="http://creativecommons.org/ns#"
   xmlns:dc="http://purl.org/dc/elements/1.1/"><title
     id="title6123">MadPride.NL</title><sodipodi:namedview
     id="namedview7"
     pagecolor="#505050"
     bordercolor="#ffffff"
     borderopacity="1"
     inkscape:showpageshadow="0"
     inkscape:pageopacity="0"
     inkscape:pagecheckerboard="1"
     inkscape:deskcolor="#505050"
     inkscape:document-units="mm"
     showgrid="false"
     inkscape:zoom="5.6568542"
     inkscape:cx="211.95526"
     inkscape:cy="182.25677"
     inkscape:window-width="3840"
     inkscape:window-height="2120"
     inkscape:window-x="0"
     inkscape:window-y="0"
     inkscape:window-maximized="1"
     inkscape:current-layer="layer1"
     showguides="true" /><defs
     id="defs2" /><g
     inkscape:label="Layer 1"
     inkscape:groupmode="layer"
     id="layer1"
     transform="translate(-22.867388,-48.959112)"><path
       id="path914-3"
       style="display:inline;fill:#ffffff;fill-opacity:1;stroke:none;stroke-width:0.9;stroke-dasharray:none;stroke-opacity:1"
       d="m 67.853273,48.959112 -1.331702,4.417818 c -0.273075,-1.255601 -0.840334,-2.444791 -2.078426,-3.072163 -2.853984,-1.446183 -6.059042,-0.597283 -8.560201,-0.07648 l -0.894519,0.187586 0.10542,0.908472 1.368909,11.683524 c -0.866458,0.184735 -1.747253,0.366369 -2.607076,0.658358 1.235388,-1.093157 2.013624,-2.603058 2.073775,-4.236434 0.0747,-2.028434 -0.659064,-4.162831 -2.359029,-5.433777 -1.834973,-1.371884 -4.101629,-1.604274 -6.179985,-1.162203 -2.50102,0.705575 -4.29639,1.871268 -5.980255,3.454311 l -7.429779,5.341018 3.595646,7.078121 -4.257621,-6.742224 -4.558895,4.263305 0.377238,2.447396 -1.478463,-0.871264 -4.790922,5.669938 10.077938,13.240535 3.673678,-6.591845 -2.689242,-3.585828 0.460954,0.02119 0.09767,-1.767334 3.464905,3.093868 0.992188,-1.439705 c -3.298669,6.474192 -4.058918,14.572271 -1.283126,21.597648 3.886451,9.836387 14.00817,18.018137 26.882822,16.995857 12.874652,-1.02228 19.303294,-8.50343 22.50176,-17.052701 l 4.011642,1.562695 1.580265,-4.185274 9.789068,1.878438 1.47433,-4.939233 -10.548713,-1.654163 11.009663,-0.232544 -0.12506,-4.781103 -5.745898,0.326078 4.814178,-4.674133 -1.28468,-3.913973 -11.521775,3.166215 1.28726,-0.617017 -2.123385,-3.334163 0.810803,-0.480591 -0.480591,-1.642277 0.912089,1.373043 3.564641,-2.098063 -0.257866,-0.849561 0.33383,0.586011 5.206917,-2.87476 -5.892146,-8.892481 -4.374927,3.55844 C 91.912317,60.026824 87.061892,54.980995 83.234248,53.667874 l 0.52555,-1.302763 -5.164026,-1.191142 -0.734322,3.019454 -0.1757,-0.07441 -2.554883,7.154602 -0.380855,-2.650484 c 0.861659,-0.606216 1.606162,-1.400647 2.037085,-2.384867 0.537932,-1.228627 0.627309,-2.767954 -0.275436,-3.992005 -2.308163,-2.541913 -5.621775,-2.905198 -8.658388,-3.287147 z m -2.808614,9.31261 h 5.17e-4 l -0.787549,2.613277 0.517798,0.10542 0.04701,1.396297 -2.143021,0.0098 -0.07183,-3.335714 c 0.911519,-0.0211 1.761884,-0.287749 2.437061,-0.789099 z m 4.914429,3.41943 0.248046,0.703316 0.441317,0.142627 -0.253731,0.95498 -1.545125,-0.400492 0.195336,-1.2361 0.804603,0.162264 z m 5.494238,1.816426 3.15588,1.691887 -0.556556,1.529105 -1.406115,-1.406115 -0.661975,0.76171 -1.775603,-1.056783 0.597897,-1.156518 0.732255,0.234611 z m 4.150134,5.211052 c 1.655714,0.71597 3.276467,0.938076 4.798674,0.683679 l -2.163693,1.761649 0.302824,0.546737 C 81.625675,70.663131 80.692846,69.628749 79.60346,68.71863 Z m -36.419999,0.179834 0.816488,0.781347 c -0.09821,0.08901 -0.178819,0.197927 -0.275436,0.288872 z m 45.531592,17.025317 0.339515,-0.04082 0.0863,4.105175 -0.414445,-0.06408 z"
       sodipodi:nodetypes="ccscccccssccccccccccccccccszccccccccccccccccccccccccccccccscccccccccccccccccccccccccccccccccccccccccc" /><path
       id="path914-6-3"
       style="display:inline;fill:#808080;fill-opacity:1;stroke:none;stroke-width:0.2;stroke-dasharray:none;stroke-opacity:0.506501"
       d="m 55.35321,65.516931 a 23.995489,23.995489 0 0 0 -16.727661,22.861654 23.995489,23.995489 0 0 0 0.593246,5.295284 l 1.280542,1.088305 8.601025,-18.374072 7.923548,9.087301 2.40347,-11.964645 c 0.266461,-1.326453 0.930363,-2.911666 -0.428914,-3.470072 -1.359291,-0.558402 -2.574453,1.820334 -1.787488,2.87321 l -2.145089,5.583121 -4.481896,-5.422408 0.38964,-0.866097 c 2.536256,0.08565 5.826867,-3.336585 4.379577,-6.691581 z M 80.192521,75.95557 c -0.589096,0.02605 -1.167326,0.27723 -1.688786,0.821656 -2.626519,2.742188 -0.506234,7.15928 1.980758,7.867737 l 0.105937,0.943611 -5.927287,3.789433 -0.331763,-5.971729 c 1.071611,-0.761258 0.642819,-3.398263 -0.822172,-3.283003 -1.46498,0.11527 -1.318116,1.827579 -1.470711,3.171899 l -1.37666,12.125875 10.325984,-6.22391 1.589568,12.491741 a 23.995489,23.995489 0 0 0 4.039029,-13.310295 23.995489,23.995489 0 0 0 -0.841809,-6.293673 l -1.085721,0.681095 c 0.809881,-2.807888 -1.943617,-6.923329 -4.496367,-6.810437 z" /><path
       style="display:inline;fill:#000000;fill-opacity:1;stroke:none;stroke-width:0.2;stroke-dasharray:none;stroke-opacity:0.506501"
       d="M 38.59265,97.675667 C 34.850176,88.203675 37.779998,76.477462 44.8448,70.236 51.909601,63.994539 57.615216,62.949732 64.969673,63.382566 l 0.01019,2.137732 c -9.807346,-1.160095 -19.875059,5.839371 -22.702279,14.353566 -2.82722,8.514195 -1.069977,17.147379 4.84501,23.025126 L 59.197805,85.381247 52.10467,81.394441 57.630245,70.068743 c 0.619845,-1.270489 2.592029,-0.991378 2.714031,0.639793 0.122002,1.631171 -0.376294,2.29795 -1.574695,2.236773 l -1.497166,6.978127 5.154674,3.068098 c -1.077042,-3.4317 3.196038,-8.969151 6.04407,-6.131142 2.689711,2.680245 0.672962,7.145434 -1.796855,7.911654 l -0.08386,0.946066 6.013814,3.650106 0.192808,-5.9779 c -1.089055,-0.736087 -0.72213,-3.382141 0.745146,-3.301057 1.467275,0.08108 1.36057,1.796564 1.54445,3.136961 L 76.745281,95.316748 66.27691,89.334893 64.186397,109.5143 C 74.9771,109.41942 82.429376,100.9303 84.53501,92.440489 86.640644,83.950677 83.083017,75.452491 76.917558,70.344996 L 78.52816,69.04085 c 6.781002,5.404649 10.391651,13.392828 8.979363,23.449272 C 86.095235,102.54657 77.806461,113.00793 64.855141,114.04185 51.903821,115.07578 42.335124,107.14766 38.59265,97.675667 Z M 65.964259,81.446352 c -0.594351,0.05054 -0.61538,0.02793 -1.133591,-0.49435 -0.51821,-0.522278 -1.806792,0.636906 0.01638,1.603752 1.823171,0.966846 1.711561,-1.159939 1.117211,-1.109402 z m 21.441773,15.606438 2.001906,-6.009527 13.208512,2.070134 -0.88791,2.977099 -9.727258,-1.867276 -1.521915,4.027379 z m 2.729199,-7.335409 -0.06908,-3.305333 4.345365,-2.884289 -4.930544,1.182755 -0.567196,-2.698763 12.454524,-3.422774 0.79381,2.415542 -6.292848,6.107351 7.395958,-0.419385 0.0722,2.745273 z m -65.986784,-16.21027 3.728479,-4.412758 2.567883,1.513623 -0.616335,-4.009428 3.290628,-3.077311 6.464642,10.23744 -1.810506,2.62459 -4.170655,-3.722298 -0.156881,2.854268 -1.587047,-0.07223 3.569953,4.760965 -2.613526,4.689652 z m 63.850221,7.121665 -0.843639,-2.158912 1.87345,-1.018799 1.308817,2.056292 z M 86.719059,77.17565 83.519264,71.41082 93.6366,63.180298 l 4.684827,7.069472 -3.394232,1.874407 -1.201244,-2.105872 -1.211851,0.719488 0.771701,2.539196 -2.071073,1.218849 -1.482833,-2.227308 -1.208399,0.738826 0.772555,2.63681 z m -10.022492,-10.388861 1.460661,1.459389 -7.619017,5.610607 z m -7.865089,6.436689 2.792123,-10.458116 2.11963,0.985825 z m -3.052864,-12.158962 2.32848,0.313838 -1.919639,12.206049 z m -30.519346,0.87373 5.905209,-4.264625 6.205364,8.804332 -2.956899,2.21159 -2.228716,-2.130518 -0.933337,0.731847 1.474155,2.916778 -2.140257,2.214342 z m 5.185147,2.650902 1.548791,-0.697243 -1.607786,-2.486815 -0.888866,1.044923 z m 38.425091,2.822423 4.572629,-12.567504 c 3.538652,1.518638 6.456134,5.17438 5.52837,9.306364 -0.940947,4.190694 -5.612729,5.931783 -10.100999,3.26114 z m 6.367193,-4.381383 c 0.432472,-0.525785 0.03199,-1.685084 -0.659058,-1.625652 l -1.1243,1.818971 c 0.60756,0.371419 1.350886,0.332466 1.783358,-0.193319 z m -11.513171,2.871659 1.71479,1.019552 -1.211235,1.457697 -1.517485,-0.744936 z m -5.401308,0.165615 0.218482,-2.023068 1.619493,0.4193 -0.437123,1.957915 z m -25.672164,-9.57379 c 2.560464,-2.549095 7.193976,-4.034387 10.321997,-1.695782 2.735417,2.045082 2.624085,7.269127 -0.405491,8.810017 L 48.8344,65.506146 Z m 7.415125,4.086961 c 0.831112,-0.784169 0.873109,-1.603558 0.606789,-2.215679 -0.266319,-0.612121 -1.21552,-0.846444 -2.174527,-0.460902 0.360579,1.183683 0.850733,2.134218 1.567738,2.676581 z m 25.678938,1.94857 2.526296,-7.075693 2.866426,1.215272 -2.736238,7.283838 z M 56.087186,51.207752 c 2.525177,-0.525802 5.482263,-1.238475 7.90428,-0.01118 2.565566,1.300035 2.438542,5.993498 -0.546966,6.768793 l -1.855704,0.199961 0.0885,4.152629 -4.235313,0.458149 z m 4.121391,4.309564 c 0.564443,-0.07203 0.790309,-0.371896 0.763915,-0.770054 -0.02639,-0.398158 -0.347228,-0.863306 -0.884811,-0.594865 z m 10.775779,6.076579 -1.049792,-2.97345 -0.752338,2.242264 -3.650885,-0.73979 3.036829,-10.066716 c 2.50973,0.312278 5.56312,0.647527 7.138165,2.783163 1.303034,1.76681 -0.188156,4.44151 -2.027708,5.362393 l 0.642552,4.462779 z m -0.317045,-6.760548 c 0.237196,0.201607 0.920956,0.202703 1.127677,-0.268121 0.206721,-0.470824 -0.213226,-1.082485 -0.627431,-0.948231 z m 8.118518,-0.210898 0.547963,-2.251815 3.060169,0.705171 -1.033684,2.559315 z"
       id="path914"
       sodipodi:nodetypes="zzcczcccszcccscccczsccczcczzzzzzzcccccccccccccccccccccccccccccccccccccccccccccccccccccccccccccccccccccccccccsscszcczcccccccccccscccczccccccccccccccczccccccsccccczccccccc" /></g><metadata
     id="metadata6121"><rdf:RDF><cc:Work
         rdf:about=""><dc:title>MadPride.NL</dc:title></cc:Work></rdf:RDF></metadata></svg>
