<svg width="3.3cm" height="3.3cm" viewBox="0 0 33 33" xml:space="preserve" xmlns="http://www.w3.org/2000/svg"><g style="display:inline"/><path style="fill:#008000;stroke-width:.264583" d="M5.488 19.305c.033.034.06.074.098.101.103.072.235.095.34.165.28.19.115.126.353.37.054.056.121.097.182.145.451.192.828.5 1.18.835.488.539.915 1.13 1.365 1.701.467.59.933 1.18 1.38 1.785q.576.8 1.09 1.645c.17.248.278.535.439.788.078.123.14.26.245.36.244.232.528.416.791.623.62-.02 1.265.112 1.862-.06.334-.096.54-.44.774-.698.118-.13.183-.3.268-.454.182-.332.332-.687.497-1.028.535-1.023 1.103-2.028 1.637-3.051.65-1.307 1.38-2.57 2.12-3.826.688-1.177 1.364-2.36 2.1-3.509a50 50 0 0 1 2.407-3.316c.68-.858 1.429-1.658 2.18-2.454.438-.46.867-.93 1.3-1.396a9.5 9.5 0 0 1 1.37-1.237c.094-.064.194-.12.29-.18.03-.02.07-.028.088-.058.084-.138-.192-.512-.236-.62-.043-.104-.026-.171-.016-.275.01-.008.025-.013.03-.026.01-.027.006-.058.012-.087.02-.094.05-.156.087-.241.041-.028.104-.122.032-.157-.007-.004-.018.014-.024.008-.027-.031-.042-.072-.063-.108l-.246-.46c.191-.12.023-.39-.168-.271-.28-.262-.147-.144-.4-.36-.041-.02-.079-.057-.125-.06-.03-.001-.049.04-.078.05-.089.035-.072-.049-.115-.02-.114-.014-.083-.09-.154-.127-.009-.005-.018.009-.028.013-.122-.145-.28-.27-.422-.393-.07-.06-.176-.186-.291-.202-.011-.002-.018.012-.027.018-.184.123-.383.223-.555.363a13.6 13.6 0 0 0-1.887 1.705c-.428.46-.852.923-1.285 1.379-.832.882-1.659 1.77-2.411 2.722a54 54 0 0 0-2.634 3.636c-.76 1.19-1.466 2.413-2.176 3.634-.775 1.316-1.54 2.64-2.222 4.007-.551 1.059-1.144 2.095-1.69 3.156-.225.467-.124.256-.327.682-.032.067-.074.13-.095.2-.006.021.031-.03.049-.045.2-.158.353-.42.604-.47.56-.11 1.141.012 1.712.017.215.184.441.356.645.552.042.04.095.21.087.152-.009-.061-.059-.108-.088-.162-.146-.27-.292-.54-.453-.801a29 29 0 0 0-1.282-1.93 68 68 0 0 0-1.458-1.89c-.579-.733-1.122-1.5-1.788-2.158-.125-.115-.247-.233-.376-.344a7.7 7.7 0 0 0-2.124-1.304c-.157-.033-.311-.087-.471-.1-.198-.016-.598.046-.811.058-.236.013-.467-.044-.685.064-2.082-.284-2.484 2.66-.403 2.944"/></svg>