<svg width="3.3cm" height="3.3cm" viewBox="0 0 33 33" xml:space="preserve" xmlns="http://www.w3.org/2000/svg"><g style="display:inline"/><g style="display:inline"><path style="fill:#008000;stroke-width:.264583" d="M4.804 19.363c.188.17.033-.002.146.243.016.035.053.058.068.093.02.046.024.098.034.146.008.036.003.076.02.108.024.043.066.074.099.111.103.08.162.204.258.29.05.046.112.078.168.117q.194.137.378.288c.211.194.407.405.604.614q.445.477.918.926c.296.269.573.557.84.854.292.318.547.666.797 1.017q.445.64.88 1.288c.195.268.321.57.439.877.139.395.306.778.47 1.163.08.207.169.409.259.61.19.393.433 1.007.853 1.152.643.222 1.363.347 2.028.208.411-.086.633-.553.95-.829.09-.191.192-.378.273-.574.057-.136.203-.637.247-.783q.195-.657.406-1.31a38 38 0 0 1 1.243-3.311 20.7 20.7 0 0 1 1.66-3.089c.175-.273.36-.54.54-.81 1.135-1.673 2.41-3.243 3.722-4.78.978-1.115 1.91-2.27 2.863-3.406.485-.577.992-1.135 1.527-1.665a9 9 0 0 1 1.102-.904c.338-.235.694-.44 1.05-.647.206-.118.41-.243.617-.361.024-.014.085-.015.073-.04-.04-.086-.127-.14-.19-.209-.35-.766-.162-.263-.391-1.56.137-.039.084-.234-.054-.196-.558-1.237-.178-.826-.907-1.412-.136-.038-.267-.106-.408-.115-.053-.004-.093.051-.139.078-.206.118-.409.242-.615.36-.464.27-.928.542-1.366.852-.56.403-1.1.832-1.591 1.318q-.93.926-1.772 1.932c-.946 1.128-1.87 2.273-2.841 3.38-.485.567-.815.948-1.29 1.53a57 57 0 0 0-2.721 3.632c-.206.31-.416.616-.616.929a24.6 24.6 0 0 0-1.938 3.63 43 43 0 0 0-1.365 3.64q-.223.692-.43 1.389l-.093.312c-.016.052-.098.176-.046.158.07-.024.08-.123.12-.184.275-.213.48-.59.822-.638 1.78-.246 1.666-.007 2.425.885.013.015-.02-.035-.03-.053l-.037-.076-.03-.062q-.121-.27-.23-.542c-.147-.348-.299-.693-.423-1.05-.227-.58-.488-1.146-.846-1.66q-.465-.693-.944-1.379a15 15 0 0 0-1.085-1.376 16 16 0 0 0-1.058-1.077 16 16 0 0 1-.759-.767 12 12 0 0 0-.987-.969 12 12 0 0 0-.622-.472c-.067-.047-.13-.1-.202-.14-.155-.084-.333-.122-.488-.208-.21-.09-.344-.164-.577-.2-.09-.013-.183.004-.273-.003-.075-.005-.148-.035-.223-.032-.107.005-.206.059-.312.072-1.9-.707-2.9 1.98-1 2.687"/></g></svg>